G04 #@! TF.GenerationSoftware,KiCad,Pcbnew,(5.1.5)-3*
G04 #@! TF.CreationDate,2021-07-05T18:08:41+08:00*
G04 #@! TF.ProjectId,____,9b201f68-2e6b-4696-9361-645f70636258,rev?*
G04 #@! TF.SameCoordinates,Original*
G04 #@! TF.FileFunction,Copper,L1,Top*
G04 #@! TF.FilePolarity,Positive*
%FSLAX46Y46*%
G04 Gerber Fmt 4.6, Leading zero omitted, Abs format (unit mm)*
G04 Created by KiCad (PCBNEW (5.1.5)-3) date 2021-07-05 18:08:41*
%MOMM*%
%LPD*%
G04 APERTURE LIST*
%ADD10C,1.524000*%
%ADD11C,0.100000*%
%ADD12C,1.400000*%
%ADD13C,1.700000*%
%ADD14O,1.600000X1.600000*%
%ADD15C,1.600000*%
%ADD16C,1.600000*%
%ADD17C,0.254000*%
G04 APERTURE END LIST*
D10*
X147828000Y-108458000D03*
X145288000Y-108458000D03*
X145288000Y-113538000D03*
X147828000Y-113538000D03*
G04 #@! TA.AperFunction,ComponentPad*
D11*
G36*
X161711819Y-107904739D02*
G01*
X160319261Y-108879819D01*
X159344181Y-107487261D01*
X160736739Y-106512181D01*
X161711819Y-107904739D01*
G37*
G04 #@! TD.AperFunction*
D12*
X159157152Y-105738227D02*
X158985080Y-105492481D01*
D13*
X158447354Y-109152884D02*
X158447354Y-109152884D01*
D12*
X157076506Y-107195111D02*
X156904434Y-106949365D01*
D13*
X156366708Y-110609768D02*
X156366708Y-110609768D01*
D12*
X154995859Y-108651995D02*
X154823787Y-108406249D01*
D13*
X154286061Y-112066652D02*
X154286061Y-112066652D01*
D12*
X152915213Y-110108879D02*
X152743141Y-109863133D01*
D13*
X152205415Y-113523537D02*
X152205415Y-113523537D01*
D12*
X150834567Y-111565763D02*
X150662495Y-111320017D01*
D14*
X141478000Y-77978000D03*
D15*
X141478000Y-67818000D03*
D14*
X122428000Y-86868000D03*
D15*
X132588000Y-86868000D03*
D14*
X122428000Y-83058000D03*
D15*
X132588000Y-83058000D03*
D14*
X122428000Y-100838000D03*
D15*
X132588000Y-100838000D03*
D14*
X122428000Y-97028000D03*
D15*
X132588000Y-97028000D03*
D14*
X141478000Y-116078000D03*
D15*
X141478000Y-105918000D03*
D14*
X137668000Y-116078000D03*
D15*
X137668000Y-105918000D03*
D14*
X142748000Y-118872000D03*
D15*
X152908000Y-118872000D03*
D16*
X165395022Y-111666600D02*
X165395022Y-111666600D01*
D15*
X156972000Y-117348000D03*
D14*
X160528000Y-83058000D03*
D15*
X170688000Y-83058000D03*
D14*
X160528000Y-86868000D03*
D15*
X170688000Y-86868000D03*
D14*
X160528000Y-97028000D03*
D15*
X170688000Y-97028000D03*
D14*
X170688000Y-100838000D03*
D15*
X160528000Y-100838000D03*
D14*
X151638000Y-77978000D03*
D15*
X151638000Y-67818000D03*
D14*
X155448000Y-77978000D03*
D15*
X155448000Y-67818000D03*
D14*
X137668000Y-77978000D03*
D15*
X137668000Y-67818000D03*
D10*
X130048000Y-80518000D03*
X130048000Y-77978000D03*
X124968000Y-77978000D03*
X124968000Y-80518000D03*
X130048000Y-93218000D03*
X130048000Y-90678000D03*
X124968000Y-90678000D03*
X124968000Y-93218000D03*
X135128000Y-108458000D03*
X132588000Y-108458000D03*
X132588000Y-113538000D03*
X135128000Y-113538000D03*
X163068000Y-103378000D03*
X163068000Y-105918000D03*
X168148000Y-105918000D03*
X168148000Y-103378000D03*
X163068000Y-90678000D03*
X163068000Y-93218000D03*
X168148000Y-93218000D03*
X168148000Y-90678000D03*
X157988000Y-75438000D03*
X160528000Y-75438000D03*
X160528000Y-70358000D03*
X157988000Y-70358000D03*
X145288000Y-75438000D03*
X147828000Y-75438000D03*
X147828000Y-70358000D03*
X145288000Y-70358000D03*
D17*
G36*
X148141710Y-63411007D02*
G01*
X150244914Y-63605897D01*
X152327982Y-63955582D01*
X154379536Y-64458153D01*
X156388371Y-65110863D01*
X158343517Y-65910148D01*
X160234294Y-66851643D01*
X162050375Y-67930206D01*
X163781843Y-69139945D01*
X165419240Y-70474255D01*
X166953624Y-71925846D01*
X168376614Y-73486791D01*
X169680438Y-75148566D01*
X170857975Y-76902092D01*
X171902794Y-78737795D01*
X172809189Y-80645647D01*
X173572209Y-82615228D01*
X174187687Y-84635782D01*
X174652261Y-86696272D01*
X174963394Y-88785446D01*
X175119386Y-90891893D01*
X175119386Y-93004107D01*
X174963394Y-95110554D01*
X174652261Y-97199728D01*
X174187687Y-99260218D01*
X173572209Y-101280772D01*
X172809189Y-103250353D01*
X171902794Y-105158205D01*
X170857975Y-106993908D01*
X169680438Y-108747434D01*
X168376614Y-110409209D01*
X166953624Y-111970154D01*
X166738037Y-112174108D01*
X166774875Y-112085174D01*
X166830022Y-111807935D01*
X166830022Y-111525265D01*
X166774875Y-111248026D01*
X166666702Y-110986873D01*
X166509659Y-110751841D01*
X166309781Y-110551963D01*
X166074749Y-110394920D01*
X165813596Y-110286747D01*
X165536357Y-110231600D01*
X165253687Y-110231600D01*
X164976448Y-110286747D01*
X164715295Y-110394920D01*
X164480263Y-110551963D01*
X164280385Y-110751841D01*
X164123342Y-110986873D01*
X164015169Y-111248026D01*
X163960022Y-111525265D01*
X163960022Y-111807935D01*
X164015169Y-112085174D01*
X164123342Y-112346327D01*
X164280385Y-112581359D01*
X164480263Y-112781237D01*
X164715295Y-112938280D01*
X164976448Y-113046453D01*
X165253687Y-113101600D01*
X165536357Y-113101600D01*
X165813596Y-113046453D01*
X165817761Y-113044728D01*
X165419240Y-113421745D01*
X163781843Y-114756055D01*
X162050375Y-115965794D01*
X160234294Y-117044357D01*
X158343517Y-117985852D01*
X158244209Y-118026450D01*
X158351853Y-117766574D01*
X158407000Y-117489335D01*
X158407000Y-117206665D01*
X158351853Y-116929426D01*
X158243680Y-116668273D01*
X158086637Y-116433241D01*
X157886759Y-116233363D01*
X157651727Y-116076320D01*
X157390574Y-115968147D01*
X157113335Y-115913000D01*
X156830665Y-115913000D01*
X156553426Y-115968147D01*
X156292273Y-116076320D01*
X156057241Y-116233363D01*
X155857363Y-116433241D01*
X155700320Y-116668273D01*
X155592147Y-116929426D01*
X155537000Y-117206665D01*
X155537000Y-117489335D01*
X155592147Y-117766574D01*
X155700320Y-118027727D01*
X155857363Y-118262759D01*
X156057241Y-118462637D01*
X156292273Y-118619680D01*
X156541042Y-118722723D01*
X156388371Y-118785137D01*
X154379536Y-119437847D01*
X154209608Y-119479474D01*
X154287853Y-119290574D01*
X154343000Y-119013335D01*
X154343000Y-118730665D01*
X154287853Y-118453426D01*
X154179680Y-118192273D01*
X154022637Y-117957241D01*
X153822759Y-117757363D01*
X153587727Y-117600320D01*
X153326574Y-117492147D01*
X153049335Y-117437000D01*
X152766665Y-117437000D01*
X152489426Y-117492147D01*
X152228273Y-117600320D01*
X151993241Y-117757363D01*
X151793363Y-117957241D01*
X151636320Y-118192273D01*
X151528147Y-118453426D01*
X151473000Y-118730665D01*
X151473000Y-119013335D01*
X151528147Y-119290574D01*
X151636320Y-119551727D01*
X151793363Y-119786759D01*
X151993241Y-119986637D01*
X152005171Y-119994608D01*
X150244914Y-120290103D01*
X148141710Y-120484993D01*
X146029856Y-120524025D01*
X143920887Y-120406984D01*
X142993306Y-120286319D01*
X143166574Y-120251853D01*
X143427727Y-120143680D01*
X143662759Y-119986637D01*
X143862637Y-119786759D01*
X144019680Y-119551727D01*
X144127853Y-119290574D01*
X144183000Y-119013335D01*
X144183000Y-118730665D01*
X144127853Y-118453426D01*
X144019680Y-118192273D01*
X143862637Y-117957241D01*
X143662759Y-117757363D01*
X143427727Y-117600320D01*
X143166574Y-117492147D01*
X142889335Y-117437000D01*
X142606665Y-117437000D01*
X142329426Y-117492147D01*
X142068273Y-117600320D01*
X141833241Y-117757363D01*
X141633363Y-117957241D01*
X141476320Y-118192273D01*
X141368147Y-118453426D01*
X141313000Y-118730665D01*
X141313000Y-119013335D01*
X141368147Y-119290574D01*
X141476320Y-119551727D01*
X141633363Y-119786759D01*
X141833241Y-119986637D01*
X142068273Y-120143680D01*
X142146776Y-120176197D01*
X141826320Y-120134510D01*
X139757597Y-119708091D01*
X137726015Y-119130056D01*
X135742670Y-118403562D01*
X133818394Y-117532577D01*
X131963698Y-116521858D01*
X131056475Y-115936665D01*
X136233000Y-115936665D01*
X136233000Y-116219335D01*
X136288147Y-116496574D01*
X136396320Y-116757727D01*
X136553363Y-116992759D01*
X136753241Y-117192637D01*
X136988273Y-117349680D01*
X137249426Y-117457853D01*
X137526665Y-117513000D01*
X137809335Y-117513000D01*
X138086574Y-117457853D01*
X138347727Y-117349680D01*
X138582759Y-117192637D01*
X138782637Y-116992759D01*
X138939680Y-116757727D01*
X139047853Y-116496574D01*
X139103000Y-116219335D01*
X139103000Y-115936665D01*
X140043000Y-115936665D01*
X140043000Y-116219335D01*
X140098147Y-116496574D01*
X140206320Y-116757727D01*
X140363363Y-116992759D01*
X140563241Y-117192637D01*
X140798273Y-117349680D01*
X141059426Y-117457853D01*
X141336665Y-117513000D01*
X141619335Y-117513000D01*
X141896574Y-117457853D01*
X142157727Y-117349680D01*
X142392759Y-117192637D01*
X142592637Y-116992759D01*
X142749680Y-116757727D01*
X142857853Y-116496574D01*
X142913000Y-116219335D01*
X142913000Y-115936665D01*
X142857853Y-115659426D01*
X142749680Y-115398273D01*
X142592637Y-115163241D01*
X142392759Y-114963363D01*
X142157727Y-114806320D01*
X141896574Y-114698147D01*
X141619335Y-114643000D01*
X141336665Y-114643000D01*
X141059426Y-114698147D01*
X140798273Y-114806320D01*
X140563241Y-114963363D01*
X140363363Y-115163241D01*
X140206320Y-115398273D01*
X140098147Y-115659426D01*
X140043000Y-115936665D01*
X139103000Y-115936665D01*
X139047853Y-115659426D01*
X138939680Y-115398273D01*
X138782637Y-115163241D01*
X138582759Y-114963363D01*
X138347727Y-114806320D01*
X138086574Y-114698147D01*
X137809335Y-114643000D01*
X137526665Y-114643000D01*
X137249426Y-114698147D01*
X136988273Y-114806320D01*
X136753241Y-114963363D01*
X136553363Y-115163241D01*
X136396320Y-115398273D01*
X136288147Y-115659426D01*
X136233000Y-115936665D01*
X131056475Y-115936665D01*
X130188711Y-115376925D01*
X128503128Y-114104031D01*
X127702045Y-113400408D01*
X131191000Y-113400408D01*
X131191000Y-113675592D01*
X131244686Y-113945490D01*
X131349995Y-114199727D01*
X131502880Y-114428535D01*
X131697465Y-114623120D01*
X131926273Y-114776005D01*
X132180510Y-114881314D01*
X132450408Y-114935000D01*
X132725592Y-114935000D01*
X132995490Y-114881314D01*
X133249727Y-114776005D01*
X133478535Y-114623120D01*
X133673120Y-114428535D01*
X133826005Y-114199727D01*
X133858000Y-114122485D01*
X133889995Y-114199727D01*
X134042880Y-114428535D01*
X134237465Y-114623120D01*
X134466273Y-114776005D01*
X134720510Y-114881314D01*
X134990408Y-114935000D01*
X135265592Y-114935000D01*
X135535490Y-114881314D01*
X135789727Y-114776005D01*
X136018535Y-114623120D01*
X136213120Y-114428535D01*
X136366005Y-114199727D01*
X136471314Y-113945490D01*
X136525000Y-113675592D01*
X136525000Y-113400408D01*
X143891000Y-113400408D01*
X143891000Y-113675592D01*
X143944686Y-113945490D01*
X144049995Y-114199727D01*
X144202880Y-114428535D01*
X144397465Y-114623120D01*
X144626273Y-114776005D01*
X144880510Y-114881314D01*
X145150408Y-114935000D01*
X145425592Y-114935000D01*
X145695490Y-114881314D01*
X145949727Y-114776005D01*
X146178535Y-114623120D01*
X146373120Y-114428535D01*
X146526005Y-114199727D01*
X146558000Y-114122485D01*
X146589995Y-114199727D01*
X146742880Y-114428535D01*
X146937465Y-114623120D01*
X147166273Y-114776005D01*
X147420510Y-114881314D01*
X147690408Y-114935000D01*
X147965592Y-114935000D01*
X148235490Y-114881314D01*
X148489727Y-114776005D01*
X148718535Y-114623120D01*
X148913120Y-114428535D01*
X149066005Y-114199727D01*
X149171314Y-113945490D01*
X149225000Y-113675592D01*
X149225000Y-113400408D01*
X149171314Y-113130510D01*
X149066005Y-112876273D01*
X148913120Y-112647465D01*
X148718535Y-112452880D01*
X148489727Y-112299995D01*
X148235490Y-112194686D01*
X147965592Y-112141000D01*
X147690408Y-112141000D01*
X147420510Y-112194686D01*
X147166273Y-112299995D01*
X146937465Y-112452880D01*
X146742880Y-112647465D01*
X146589995Y-112876273D01*
X146558000Y-112953515D01*
X146526005Y-112876273D01*
X146373120Y-112647465D01*
X146178535Y-112452880D01*
X145949727Y-112299995D01*
X145695490Y-112194686D01*
X145425592Y-112141000D01*
X145150408Y-112141000D01*
X144880510Y-112194686D01*
X144626273Y-112299995D01*
X144397465Y-112452880D01*
X144202880Y-112647465D01*
X144049995Y-112876273D01*
X143944686Y-113130510D01*
X143891000Y-113400408D01*
X136525000Y-113400408D01*
X136471314Y-113130510D01*
X136366005Y-112876273D01*
X136213120Y-112647465D01*
X136018535Y-112452880D01*
X135789727Y-112299995D01*
X135535490Y-112194686D01*
X135265592Y-112141000D01*
X134990408Y-112141000D01*
X134720510Y-112194686D01*
X134466273Y-112299995D01*
X134237465Y-112452880D01*
X134042880Y-112647465D01*
X133889995Y-112876273D01*
X133858000Y-112953515D01*
X133826005Y-112876273D01*
X133673120Y-112647465D01*
X133478535Y-112452880D01*
X133249727Y-112299995D01*
X132995490Y-112194686D01*
X132725592Y-112141000D01*
X132450408Y-112141000D01*
X132180510Y-112194686D01*
X131926273Y-112299995D01*
X131697465Y-112452880D01*
X131502880Y-112647465D01*
X131349995Y-112876273D01*
X131244686Y-113130510D01*
X131191000Y-113400408D01*
X127702045Y-113400408D01*
X126916154Y-112710129D01*
X125580219Y-111349275D01*
X149321356Y-111349275D01*
X149352833Y-111610357D01*
X149434641Y-111860280D01*
X149531311Y-112032018D01*
X149778612Y-112385203D01*
X149906928Y-112534781D01*
X150113798Y-112697136D01*
X150348368Y-112816011D01*
X150601621Y-112886841D01*
X150853799Y-112906135D01*
X150777483Y-113090379D01*
X150720415Y-113377277D01*
X150720415Y-113669797D01*
X150777483Y-113956695D01*
X150889425Y-114226948D01*
X151051940Y-114470169D01*
X151258783Y-114677012D01*
X151502004Y-114839527D01*
X151772257Y-114951469D01*
X152059155Y-115008537D01*
X152351675Y-115008537D01*
X152638573Y-114951469D01*
X152908826Y-114839527D01*
X153152047Y-114677012D01*
X153358890Y-114470169D01*
X153521405Y-114226948D01*
X153633347Y-113956695D01*
X153690415Y-113669797D01*
X153690415Y-113427280D01*
X153852903Y-113494584D01*
X154139801Y-113551652D01*
X154432321Y-113551652D01*
X154719219Y-113494584D01*
X154989472Y-113382642D01*
X155232693Y-113220127D01*
X155439536Y-113013284D01*
X155602051Y-112770063D01*
X155713993Y-112499810D01*
X155771061Y-112212912D01*
X155771061Y-111970395D01*
X155933550Y-112037700D01*
X156220448Y-112094768D01*
X156512968Y-112094768D01*
X156799866Y-112037700D01*
X157070119Y-111925758D01*
X157313340Y-111763243D01*
X157520183Y-111556400D01*
X157682698Y-111313179D01*
X157794640Y-111042926D01*
X157851708Y-110756028D01*
X157851708Y-110513512D01*
X158014196Y-110580816D01*
X158301094Y-110637884D01*
X158593614Y-110637884D01*
X158880512Y-110580816D01*
X159150765Y-110468874D01*
X159393986Y-110306359D01*
X159600829Y-110099516D01*
X159763344Y-109856295D01*
X159875286Y-109586042D01*
X159917861Y-109372002D01*
X159976425Y-109417964D01*
X160088000Y-109474507D01*
X160208461Y-109508197D01*
X160333181Y-109517739D01*
X160457365Y-109502766D01*
X160576242Y-109463854D01*
X160685244Y-109402497D01*
X162077802Y-108427417D01*
X162172739Y-108345974D01*
X162249964Y-108247575D01*
X162306507Y-108136000D01*
X162340197Y-108015539D01*
X162349739Y-107890819D01*
X162334766Y-107766635D01*
X162295854Y-107647758D01*
X162234497Y-107538756D01*
X161259417Y-106146198D01*
X161177974Y-106051261D01*
X161079575Y-105974036D01*
X160968000Y-105917493D01*
X160847539Y-105883803D01*
X160722819Y-105874261D01*
X160598635Y-105889234D01*
X160481567Y-105927554D01*
X160498291Y-105708968D01*
X160466814Y-105447887D01*
X160385006Y-105197964D01*
X160288337Y-105026226D01*
X160041036Y-104673041D01*
X159912719Y-104523463D01*
X159705849Y-104361109D01*
X159471279Y-104242233D01*
X159218026Y-104171403D01*
X158955822Y-104151342D01*
X158694740Y-104182819D01*
X158444817Y-104264627D01*
X158215655Y-104393620D01*
X158016062Y-104564842D01*
X157853708Y-104771712D01*
X157734832Y-105006282D01*
X157664002Y-105259535D01*
X157643941Y-105521739D01*
X157675418Y-105782821D01*
X157708271Y-105883185D01*
X157625203Y-105817993D01*
X157390633Y-105699117D01*
X157137380Y-105628287D01*
X156875176Y-105608226D01*
X156614094Y-105639703D01*
X156364171Y-105721511D01*
X156135009Y-105850504D01*
X155935416Y-106021726D01*
X155773062Y-106228596D01*
X155654186Y-106463166D01*
X155583356Y-106716419D01*
X155563295Y-106978623D01*
X155594772Y-107239705D01*
X155627625Y-107340070D01*
X155544556Y-107274877D01*
X155309986Y-107156001D01*
X155056733Y-107085171D01*
X154794529Y-107065110D01*
X154533447Y-107096587D01*
X154283524Y-107178395D01*
X154054362Y-107307388D01*
X153854769Y-107478610D01*
X153692415Y-107685480D01*
X153573539Y-107920050D01*
X153502709Y-108173303D01*
X153482648Y-108435507D01*
X153514125Y-108696589D01*
X153546978Y-108796953D01*
X153463910Y-108731761D01*
X153229340Y-108612885D01*
X152976087Y-108542055D01*
X152713883Y-108521994D01*
X152452801Y-108553471D01*
X152202878Y-108635279D01*
X151973716Y-108764272D01*
X151774123Y-108935494D01*
X151611769Y-109142364D01*
X151492893Y-109376934D01*
X151422063Y-109630187D01*
X151402002Y-109892391D01*
X151433479Y-110153473D01*
X151466332Y-110253837D01*
X151383264Y-110188645D01*
X151148694Y-110069769D01*
X150895441Y-109998939D01*
X150633237Y-109978878D01*
X150372155Y-110010355D01*
X150122232Y-110092163D01*
X149893070Y-110221156D01*
X149693477Y-110392378D01*
X149531123Y-110599248D01*
X149412247Y-110833818D01*
X149341417Y-111087071D01*
X149321356Y-111349275D01*
X125580219Y-111349275D01*
X125436456Y-111202831D01*
X124072118Y-109590370D01*
X123149437Y-108320408D01*
X131191000Y-108320408D01*
X131191000Y-108595592D01*
X131244686Y-108865490D01*
X131349995Y-109119727D01*
X131502880Y-109348535D01*
X131697465Y-109543120D01*
X131926273Y-109696005D01*
X132180510Y-109801314D01*
X132450408Y-109855000D01*
X132725592Y-109855000D01*
X132995490Y-109801314D01*
X133249727Y-109696005D01*
X133478535Y-109543120D01*
X133673120Y-109348535D01*
X133826005Y-109119727D01*
X133858000Y-109042485D01*
X133889995Y-109119727D01*
X134042880Y-109348535D01*
X134237465Y-109543120D01*
X134466273Y-109696005D01*
X134720510Y-109801314D01*
X134990408Y-109855000D01*
X135265592Y-109855000D01*
X135535490Y-109801314D01*
X135789727Y-109696005D01*
X136018535Y-109543120D01*
X136213120Y-109348535D01*
X136366005Y-109119727D01*
X136471314Y-108865490D01*
X136525000Y-108595592D01*
X136525000Y-108320408D01*
X143891000Y-108320408D01*
X143891000Y-108595592D01*
X143944686Y-108865490D01*
X144049995Y-109119727D01*
X144202880Y-109348535D01*
X144397465Y-109543120D01*
X144626273Y-109696005D01*
X144880510Y-109801314D01*
X145150408Y-109855000D01*
X145425592Y-109855000D01*
X145695490Y-109801314D01*
X145949727Y-109696005D01*
X146178535Y-109543120D01*
X146373120Y-109348535D01*
X146526005Y-109119727D01*
X146558000Y-109042485D01*
X146589995Y-109119727D01*
X146742880Y-109348535D01*
X146937465Y-109543120D01*
X147166273Y-109696005D01*
X147420510Y-109801314D01*
X147690408Y-109855000D01*
X147965592Y-109855000D01*
X148235490Y-109801314D01*
X148489727Y-109696005D01*
X148718535Y-109543120D01*
X148913120Y-109348535D01*
X149066005Y-109119727D01*
X149171314Y-108865490D01*
X149225000Y-108595592D01*
X149225000Y-108320408D01*
X149171314Y-108050510D01*
X149066005Y-107796273D01*
X148913120Y-107567465D01*
X148718535Y-107372880D01*
X148489727Y-107219995D01*
X148235490Y-107114686D01*
X147965592Y-107061000D01*
X147690408Y-107061000D01*
X147420510Y-107114686D01*
X147166273Y-107219995D01*
X146937465Y-107372880D01*
X146742880Y-107567465D01*
X146589995Y-107796273D01*
X146558000Y-107873515D01*
X146526005Y-107796273D01*
X146373120Y-107567465D01*
X146178535Y-107372880D01*
X145949727Y-107219995D01*
X145695490Y-107114686D01*
X145425592Y-107061000D01*
X145150408Y-107061000D01*
X144880510Y-107114686D01*
X144626273Y-107219995D01*
X144397465Y-107372880D01*
X144202880Y-107567465D01*
X144049995Y-107796273D01*
X143944686Y-108050510D01*
X143891000Y-108320408D01*
X136525000Y-108320408D01*
X136471314Y-108050510D01*
X136366005Y-107796273D01*
X136213120Y-107567465D01*
X136018535Y-107372880D01*
X135789727Y-107219995D01*
X135535490Y-107114686D01*
X135265592Y-107061000D01*
X134990408Y-107061000D01*
X134720510Y-107114686D01*
X134466273Y-107219995D01*
X134237465Y-107372880D01*
X134042880Y-107567465D01*
X133889995Y-107796273D01*
X133858000Y-107873515D01*
X133826005Y-107796273D01*
X133673120Y-107567465D01*
X133478535Y-107372880D01*
X133249727Y-107219995D01*
X132995490Y-107114686D01*
X132725592Y-107061000D01*
X132450408Y-107061000D01*
X132180510Y-107114686D01*
X131926273Y-107219995D01*
X131697465Y-107372880D01*
X131502880Y-107567465D01*
X131349995Y-107796273D01*
X131244686Y-108050510D01*
X131191000Y-108320408D01*
X123149437Y-108320408D01*
X122830589Y-107881553D01*
X121718651Y-106085712D01*
X121557570Y-105776665D01*
X136233000Y-105776665D01*
X136233000Y-106059335D01*
X136288147Y-106336574D01*
X136396320Y-106597727D01*
X136553363Y-106832759D01*
X136753241Y-107032637D01*
X136988273Y-107189680D01*
X137249426Y-107297853D01*
X137526665Y-107353000D01*
X137809335Y-107353000D01*
X138086574Y-107297853D01*
X138347727Y-107189680D01*
X138582759Y-107032637D01*
X138782637Y-106832759D01*
X138939680Y-106597727D01*
X139047853Y-106336574D01*
X139103000Y-106059335D01*
X139103000Y-105776665D01*
X140043000Y-105776665D01*
X140043000Y-106059335D01*
X140098147Y-106336574D01*
X140206320Y-106597727D01*
X140363363Y-106832759D01*
X140563241Y-107032637D01*
X140798273Y-107189680D01*
X141059426Y-107297853D01*
X141336665Y-107353000D01*
X141619335Y-107353000D01*
X141896574Y-107297853D01*
X142157727Y-107189680D01*
X142392759Y-107032637D01*
X142592637Y-106832759D01*
X142749680Y-106597727D01*
X142857853Y-106336574D01*
X142913000Y-106059335D01*
X142913000Y-105776665D01*
X142857853Y-105499426D01*
X142749680Y-105238273D01*
X142592637Y-105003241D01*
X142392759Y-104803363D01*
X142157727Y-104646320D01*
X141896574Y-104538147D01*
X141619335Y-104483000D01*
X141336665Y-104483000D01*
X141059426Y-104538147D01*
X140798273Y-104646320D01*
X140563241Y-104803363D01*
X140363363Y-105003241D01*
X140206320Y-105238273D01*
X140098147Y-105499426D01*
X140043000Y-105776665D01*
X139103000Y-105776665D01*
X139047853Y-105499426D01*
X138939680Y-105238273D01*
X138782637Y-105003241D01*
X138582759Y-104803363D01*
X138347727Y-104646320D01*
X138086574Y-104538147D01*
X137809335Y-104483000D01*
X137526665Y-104483000D01*
X137249426Y-104538147D01*
X136988273Y-104646320D01*
X136753241Y-104803363D01*
X136553363Y-105003241D01*
X136396320Y-105238273D01*
X136288147Y-105499426D01*
X136233000Y-105776665D01*
X121557570Y-105776665D01*
X120742378Y-104212655D01*
X120323781Y-103240408D01*
X161671000Y-103240408D01*
X161671000Y-103515592D01*
X161724686Y-103785490D01*
X161829995Y-104039727D01*
X161982880Y-104268535D01*
X162177465Y-104463120D01*
X162406273Y-104616005D01*
X162483515Y-104648000D01*
X162406273Y-104679995D01*
X162177465Y-104832880D01*
X161982880Y-105027465D01*
X161829995Y-105256273D01*
X161724686Y-105510510D01*
X161671000Y-105780408D01*
X161671000Y-106055592D01*
X161724686Y-106325490D01*
X161829995Y-106579727D01*
X161982880Y-106808535D01*
X162177465Y-107003120D01*
X162406273Y-107156005D01*
X162660510Y-107261314D01*
X162930408Y-107315000D01*
X163205592Y-107315000D01*
X163475490Y-107261314D01*
X163729727Y-107156005D01*
X163958535Y-107003120D01*
X164153120Y-106808535D01*
X164306005Y-106579727D01*
X164411314Y-106325490D01*
X164465000Y-106055592D01*
X164465000Y-105780408D01*
X164411314Y-105510510D01*
X164306005Y-105256273D01*
X164153120Y-105027465D01*
X163958535Y-104832880D01*
X163729727Y-104679995D01*
X163652485Y-104648000D01*
X163729727Y-104616005D01*
X163958535Y-104463120D01*
X164153120Y-104268535D01*
X164306005Y-104039727D01*
X164411314Y-103785490D01*
X164465000Y-103515592D01*
X164465000Y-103240408D01*
X166751000Y-103240408D01*
X166751000Y-103515592D01*
X166804686Y-103785490D01*
X166909995Y-104039727D01*
X167062880Y-104268535D01*
X167257465Y-104463120D01*
X167486273Y-104616005D01*
X167563515Y-104648000D01*
X167486273Y-104679995D01*
X167257465Y-104832880D01*
X167062880Y-105027465D01*
X166909995Y-105256273D01*
X166804686Y-105510510D01*
X166751000Y-105780408D01*
X166751000Y-106055592D01*
X166804686Y-106325490D01*
X166909995Y-106579727D01*
X167062880Y-106808535D01*
X167257465Y-107003120D01*
X167486273Y-107156005D01*
X167740510Y-107261314D01*
X168010408Y-107315000D01*
X168285592Y-107315000D01*
X168555490Y-107261314D01*
X168809727Y-107156005D01*
X169038535Y-107003120D01*
X169233120Y-106808535D01*
X169386005Y-106579727D01*
X169491314Y-106325490D01*
X169545000Y-106055592D01*
X169545000Y-105780408D01*
X169491314Y-105510510D01*
X169386005Y-105256273D01*
X169233120Y-105027465D01*
X169038535Y-104832880D01*
X168809727Y-104679995D01*
X168732485Y-104648000D01*
X168809727Y-104616005D01*
X169038535Y-104463120D01*
X169233120Y-104268535D01*
X169386005Y-104039727D01*
X169491314Y-103785490D01*
X169545000Y-103515592D01*
X169545000Y-103240408D01*
X169491314Y-102970510D01*
X169386005Y-102716273D01*
X169233120Y-102487465D01*
X169038535Y-102292880D01*
X168809727Y-102139995D01*
X168555490Y-102034686D01*
X168285592Y-101981000D01*
X168010408Y-101981000D01*
X167740510Y-102034686D01*
X167486273Y-102139995D01*
X167257465Y-102292880D01*
X167062880Y-102487465D01*
X166909995Y-102716273D01*
X166804686Y-102970510D01*
X166751000Y-103240408D01*
X164465000Y-103240408D01*
X164411314Y-102970510D01*
X164306005Y-102716273D01*
X164153120Y-102487465D01*
X163958535Y-102292880D01*
X163729727Y-102139995D01*
X163475490Y-102034686D01*
X163205592Y-101981000D01*
X162930408Y-101981000D01*
X162660510Y-102034686D01*
X162406273Y-102139995D01*
X162177465Y-102292880D01*
X161982880Y-102487465D01*
X161829995Y-102716273D01*
X161724686Y-102970510D01*
X161671000Y-103240408D01*
X120323781Y-103240408D01*
X119907100Y-102272614D01*
X119362647Y-100696665D01*
X120993000Y-100696665D01*
X120993000Y-100979335D01*
X121048147Y-101256574D01*
X121156320Y-101517727D01*
X121313363Y-101752759D01*
X121513241Y-101952637D01*
X121748273Y-102109680D01*
X122009426Y-102217853D01*
X122286665Y-102273000D01*
X122569335Y-102273000D01*
X122846574Y-102217853D01*
X123107727Y-102109680D01*
X123342759Y-101952637D01*
X123542637Y-101752759D01*
X123699680Y-101517727D01*
X123807853Y-101256574D01*
X123863000Y-100979335D01*
X123863000Y-100696665D01*
X131153000Y-100696665D01*
X131153000Y-100979335D01*
X131208147Y-101256574D01*
X131316320Y-101517727D01*
X131473363Y-101752759D01*
X131673241Y-101952637D01*
X131908273Y-102109680D01*
X132169426Y-102217853D01*
X132446665Y-102273000D01*
X132729335Y-102273000D01*
X133006574Y-102217853D01*
X133267727Y-102109680D01*
X133502759Y-101952637D01*
X133702637Y-101752759D01*
X133859680Y-101517727D01*
X133967853Y-101256574D01*
X134023000Y-100979335D01*
X134023000Y-100696665D01*
X133967853Y-100419426D01*
X133859680Y-100158273D01*
X133702637Y-99923241D01*
X133502759Y-99723363D01*
X133267727Y-99566320D01*
X133006574Y-99458147D01*
X132729335Y-99403000D01*
X132446665Y-99403000D01*
X132169426Y-99458147D01*
X131908273Y-99566320D01*
X131673241Y-99723363D01*
X131473363Y-99923241D01*
X131316320Y-100158273D01*
X131208147Y-100419426D01*
X131153000Y-100696665D01*
X123863000Y-100696665D01*
X123807853Y-100419426D01*
X123699680Y-100158273D01*
X123542637Y-99923241D01*
X123342759Y-99723363D01*
X123107727Y-99566320D01*
X122846574Y-99458147D01*
X122569335Y-99403000D01*
X122286665Y-99403000D01*
X122009426Y-99458147D01*
X121748273Y-99566320D01*
X121513241Y-99723363D01*
X121313363Y-99923241D01*
X121156320Y-100158273D01*
X121048147Y-100419426D01*
X120993000Y-100696665D01*
X119362647Y-100696665D01*
X119217380Y-100276183D01*
X118676985Y-98234266D01*
X118425075Y-96886665D01*
X120993000Y-96886665D01*
X120993000Y-97169335D01*
X121048147Y-97446574D01*
X121156320Y-97707727D01*
X121313363Y-97942759D01*
X121513241Y-98142637D01*
X121748273Y-98299680D01*
X122009426Y-98407853D01*
X122286665Y-98463000D01*
X122569335Y-98463000D01*
X122846574Y-98407853D01*
X123107727Y-98299680D01*
X123342759Y-98142637D01*
X123542637Y-97942759D01*
X123699680Y-97707727D01*
X123807853Y-97446574D01*
X123863000Y-97169335D01*
X123863000Y-96886665D01*
X131153000Y-96886665D01*
X131153000Y-97169335D01*
X131208147Y-97446574D01*
X131316320Y-97707727D01*
X131473363Y-97942759D01*
X131673241Y-98142637D01*
X131908273Y-98299680D01*
X132169426Y-98407853D01*
X132446665Y-98463000D01*
X132729335Y-98463000D01*
X133006574Y-98407853D01*
X133267727Y-98299680D01*
X133502759Y-98142637D01*
X133570875Y-98074521D01*
X137938979Y-98074521D01*
X137938979Y-98521479D01*
X138026176Y-98959849D01*
X138197220Y-99372785D01*
X138445536Y-99744417D01*
X138761583Y-100060464D01*
X139133215Y-100308780D01*
X139546151Y-100479824D01*
X139984521Y-100567021D01*
X140431479Y-100567021D01*
X140869849Y-100479824D01*
X141282785Y-100308780D01*
X141654417Y-100060464D01*
X141970464Y-99744417D01*
X142218780Y-99372785D01*
X142250787Y-99295512D01*
X143791386Y-99295512D01*
X143791386Y-99840488D01*
X143897706Y-100374991D01*
X144106259Y-100878483D01*
X144409031Y-101331613D01*
X144794387Y-101716969D01*
X145247517Y-102019741D01*
X145751009Y-102228294D01*
X146285512Y-102334614D01*
X146830488Y-102334614D01*
X147364991Y-102228294D01*
X147868483Y-102019741D01*
X148321613Y-101716969D01*
X148706969Y-101331613D01*
X149009741Y-100878483D01*
X149085052Y-100696665D01*
X159093000Y-100696665D01*
X159093000Y-100979335D01*
X159148147Y-101256574D01*
X159256320Y-101517727D01*
X159413363Y-101752759D01*
X159613241Y-101952637D01*
X159848273Y-102109680D01*
X160109426Y-102217853D01*
X160386665Y-102273000D01*
X160669335Y-102273000D01*
X160946574Y-102217853D01*
X161207727Y-102109680D01*
X161442759Y-101952637D01*
X161642637Y-101752759D01*
X161799680Y-101517727D01*
X161907853Y-101256574D01*
X161963000Y-100979335D01*
X161963000Y-100696665D01*
X169253000Y-100696665D01*
X169253000Y-100979335D01*
X169308147Y-101256574D01*
X169416320Y-101517727D01*
X169573363Y-101752759D01*
X169773241Y-101952637D01*
X170008273Y-102109680D01*
X170269426Y-102217853D01*
X170546665Y-102273000D01*
X170829335Y-102273000D01*
X171106574Y-102217853D01*
X171367727Y-102109680D01*
X171602759Y-101952637D01*
X171802637Y-101752759D01*
X171959680Y-101517727D01*
X172067853Y-101256574D01*
X172123000Y-100979335D01*
X172123000Y-100696665D01*
X172067853Y-100419426D01*
X171959680Y-100158273D01*
X171802637Y-99923241D01*
X171602759Y-99723363D01*
X171367727Y-99566320D01*
X171106574Y-99458147D01*
X170829335Y-99403000D01*
X170546665Y-99403000D01*
X170269426Y-99458147D01*
X170008273Y-99566320D01*
X169773241Y-99723363D01*
X169573363Y-99923241D01*
X169416320Y-100158273D01*
X169308147Y-100419426D01*
X169253000Y-100696665D01*
X161963000Y-100696665D01*
X161907853Y-100419426D01*
X161799680Y-100158273D01*
X161642637Y-99923241D01*
X161442759Y-99723363D01*
X161207727Y-99566320D01*
X160946574Y-99458147D01*
X160669335Y-99403000D01*
X160386665Y-99403000D01*
X160109426Y-99458147D01*
X159848273Y-99566320D01*
X159613241Y-99723363D01*
X159413363Y-99923241D01*
X159256320Y-100158273D01*
X159148147Y-100419426D01*
X159093000Y-100696665D01*
X149085052Y-100696665D01*
X149218294Y-100374991D01*
X149324614Y-99840488D01*
X149324614Y-99295512D01*
X149218294Y-98761009D01*
X149009741Y-98257517D01*
X148706969Y-97804387D01*
X148321613Y-97419031D01*
X147868483Y-97116259D01*
X147364991Y-96907706D01*
X147259212Y-96886665D01*
X159093000Y-96886665D01*
X159093000Y-97169335D01*
X159148147Y-97446574D01*
X159256320Y-97707727D01*
X159413363Y-97942759D01*
X159613241Y-98142637D01*
X159848273Y-98299680D01*
X160109426Y-98407853D01*
X160386665Y-98463000D01*
X160669335Y-98463000D01*
X160946574Y-98407853D01*
X161207727Y-98299680D01*
X161442759Y-98142637D01*
X161642637Y-97942759D01*
X161799680Y-97707727D01*
X161907853Y-97446574D01*
X161963000Y-97169335D01*
X161963000Y-96886665D01*
X169253000Y-96886665D01*
X169253000Y-97169335D01*
X169308147Y-97446574D01*
X169416320Y-97707727D01*
X169573363Y-97942759D01*
X169773241Y-98142637D01*
X170008273Y-98299680D01*
X170269426Y-98407853D01*
X170546665Y-98463000D01*
X170829335Y-98463000D01*
X171106574Y-98407853D01*
X171367727Y-98299680D01*
X171602759Y-98142637D01*
X171802637Y-97942759D01*
X171959680Y-97707727D01*
X172067853Y-97446574D01*
X172123000Y-97169335D01*
X172123000Y-96886665D01*
X172067853Y-96609426D01*
X171959680Y-96348273D01*
X171802637Y-96113241D01*
X171602759Y-95913363D01*
X171367727Y-95756320D01*
X171106574Y-95648147D01*
X170829335Y-95593000D01*
X170546665Y-95593000D01*
X170269426Y-95648147D01*
X170008273Y-95756320D01*
X169773241Y-95913363D01*
X169573363Y-96113241D01*
X169416320Y-96348273D01*
X169308147Y-96609426D01*
X169253000Y-96886665D01*
X161963000Y-96886665D01*
X161907853Y-96609426D01*
X161799680Y-96348273D01*
X161642637Y-96113241D01*
X161442759Y-95913363D01*
X161207727Y-95756320D01*
X160946574Y-95648147D01*
X160669335Y-95593000D01*
X160386665Y-95593000D01*
X160109426Y-95648147D01*
X159848273Y-95756320D01*
X159613241Y-95913363D01*
X159413363Y-96113241D01*
X159256320Y-96348273D01*
X159148147Y-96609426D01*
X159093000Y-96886665D01*
X147259212Y-96886665D01*
X146830488Y-96801386D01*
X146285512Y-96801386D01*
X145751009Y-96907706D01*
X145247517Y-97116259D01*
X144794387Y-97419031D01*
X144409031Y-97804387D01*
X144106259Y-98257517D01*
X143897706Y-98761009D01*
X143791386Y-99295512D01*
X142250787Y-99295512D01*
X142389824Y-98959849D01*
X142477021Y-98521479D01*
X142477021Y-98074521D01*
X142389824Y-97636151D01*
X142218780Y-97223215D01*
X141970464Y-96851583D01*
X141654417Y-96535536D01*
X141282785Y-96287220D01*
X140869849Y-96116176D01*
X140431479Y-96028979D01*
X139984521Y-96028979D01*
X139546151Y-96116176D01*
X139133215Y-96287220D01*
X138761583Y-96535536D01*
X138445536Y-96851583D01*
X138197220Y-97223215D01*
X138026176Y-97636151D01*
X137938979Y-98074521D01*
X133570875Y-98074521D01*
X133702637Y-97942759D01*
X133859680Y-97707727D01*
X133967853Y-97446574D01*
X134023000Y-97169335D01*
X134023000Y-96886665D01*
X133967853Y-96609426D01*
X133859680Y-96348273D01*
X133702637Y-96113241D01*
X133502759Y-95913363D01*
X133267727Y-95756320D01*
X133006574Y-95648147D01*
X132729335Y-95593000D01*
X132446665Y-95593000D01*
X132169426Y-95648147D01*
X131908273Y-95756320D01*
X131673241Y-95913363D01*
X131473363Y-96113241D01*
X131316320Y-96348273D01*
X131208147Y-96609426D01*
X131153000Y-96886665D01*
X123863000Y-96886665D01*
X123807853Y-96609426D01*
X123699680Y-96348273D01*
X123542637Y-96113241D01*
X123342759Y-95913363D01*
X123107727Y-95756320D01*
X122846574Y-95648147D01*
X122569335Y-95593000D01*
X122286665Y-95593000D01*
X122009426Y-95648147D01*
X121748273Y-95756320D01*
X121513241Y-95913363D01*
X121313363Y-96113241D01*
X121156320Y-96348273D01*
X121048147Y-96609426D01*
X120993000Y-96886665D01*
X118425075Y-96886665D01*
X118288867Y-96158016D01*
X118055144Y-94058772D01*
X117977095Y-91948000D01*
X118029142Y-90540408D01*
X123571000Y-90540408D01*
X123571000Y-90815592D01*
X123624686Y-91085490D01*
X123729995Y-91339727D01*
X123882880Y-91568535D01*
X124077465Y-91763120D01*
X124306273Y-91916005D01*
X124383515Y-91948000D01*
X124306273Y-91979995D01*
X124077465Y-92132880D01*
X123882880Y-92327465D01*
X123729995Y-92556273D01*
X123624686Y-92810510D01*
X123571000Y-93080408D01*
X123571000Y-93355592D01*
X123624686Y-93625490D01*
X123729995Y-93879727D01*
X123882880Y-94108535D01*
X124077465Y-94303120D01*
X124306273Y-94456005D01*
X124560510Y-94561314D01*
X124830408Y-94615000D01*
X125105592Y-94615000D01*
X125375490Y-94561314D01*
X125629727Y-94456005D01*
X125858535Y-94303120D01*
X126053120Y-94108535D01*
X126206005Y-93879727D01*
X126311314Y-93625490D01*
X126365000Y-93355592D01*
X126365000Y-93080408D01*
X126311314Y-92810510D01*
X126206005Y-92556273D01*
X126053120Y-92327465D01*
X125858535Y-92132880D01*
X125629727Y-91979995D01*
X125552485Y-91948000D01*
X125629727Y-91916005D01*
X125858535Y-91763120D01*
X126053120Y-91568535D01*
X126206005Y-91339727D01*
X126311314Y-91085490D01*
X126365000Y-90815592D01*
X126365000Y-90540408D01*
X128651000Y-90540408D01*
X128651000Y-90815592D01*
X128704686Y-91085490D01*
X128809995Y-91339727D01*
X128962880Y-91568535D01*
X129157465Y-91763120D01*
X129386273Y-91916005D01*
X129463515Y-91948000D01*
X129386273Y-91979995D01*
X129157465Y-92132880D01*
X128962880Y-92327465D01*
X128809995Y-92556273D01*
X128704686Y-92810510D01*
X128651000Y-93080408D01*
X128651000Y-93355592D01*
X128704686Y-93625490D01*
X128809995Y-93879727D01*
X128962880Y-94108535D01*
X129157465Y-94303120D01*
X129386273Y-94456005D01*
X129640510Y-94561314D01*
X129910408Y-94615000D01*
X130185592Y-94615000D01*
X130455490Y-94561314D01*
X130709727Y-94456005D01*
X130938535Y-94303120D01*
X131133120Y-94108535D01*
X131286005Y-93879727D01*
X131391314Y-93625490D01*
X131445000Y-93355592D01*
X131445000Y-93080408D01*
X131391314Y-92810510D01*
X131286005Y-92556273D01*
X131133120Y-92327465D01*
X130938535Y-92132880D01*
X130709727Y-91979995D01*
X130632485Y-91948000D01*
X130709727Y-91916005D01*
X130938535Y-91763120D01*
X131026143Y-91675512D01*
X136171386Y-91675512D01*
X136171386Y-92220488D01*
X136277706Y-92754991D01*
X136486259Y-93258483D01*
X136789031Y-93711613D01*
X137174387Y-94096969D01*
X137627517Y-94399741D01*
X138131009Y-94608294D01*
X138665512Y-94714614D01*
X139210488Y-94714614D01*
X139744991Y-94608294D01*
X140248483Y-94399741D01*
X140701613Y-94096969D01*
X141086969Y-93711613D01*
X141389741Y-93258483D01*
X141598294Y-92754991D01*
X141704614Y-92220488D01*
X141704614Y-91675512D01*
X151411386Y-91675512D01*
X151411386Y-92220488D01*
X151517706Y-92754991D01*
X151726259Y-93258483D01*
X152029031Y-93711613D01*
X152414387Y-94096969D01*
X152867517Y-94399741D01*
X153371009Y-94608294D01*
X153905512Y-94714614D01*
X154450488Y-94714614D01*
X154984991Y-94608294D01*
X155488483Y-94399741D01*
X155941613Y-94096969D01*
X156326969Y-93711613D01*
X156629741Y-93258483D01*
X156838294Y-92754991D01*
X156944614Y-92220488D01*
X156944614Y-91675512D01*
X156838294Y-91141009D01*
X156629741Y-90637517D01*
X156564855Y-90540408D01*
X161671000Y-90540408D01*
X161671000Y-90815592D01*
X161724686Y-91085490D01*
X161829995Y-91339727D01*
X161982880Y-91568535D01*
X162177465Y-91763120D01*
X162406273Y-91916005D01*
X162483515Y-91948000D01*
X162406273Y-91979995D01*
X162177465Y-92132880D01*
X161982880Y-92327465D01*
X161829995Y-92556273D01*
X161724686Y-92810510D01*
X161671000Y-93080408D01*
X161671000Y-93355592D01*
X161724686Y-93625490D01*
X161829995Y-93879727D01*
X161982880Y-94108535D01*
X162177465Y-94303120D01*
X162406273Y-94456005D01*
X162660510Y-94561314D01*
X162930408Y-94615000D01*
X163205592Y-94615000D01*
X163475490Y-94561314D01*
X163729727Y-94456005D01*
X163958535Y-94303120D01*
X164153120Y-94108535D01*
X164306005Y-93879727D01*
X164411314Y-93625490D01*
X164465000Y-93355592D01*
X164465000Y-93080408D01*
X164411314Y-92810510D01*
X164306005Y-92556273D01*
X164153120Y-92327465D01*
X163958535Y-92132880D01*
X163729727Y-91979995D01*
X163652485Y-91948000D01*
X163729727Y-91916005D01*
X163958535Y-91763120D01*
X164153120Y-91568535D01*
X164306005Y-91339727D01*
X164411314Y-91085490D01*
X164465000Y-90815592D01*
X164465000Y-90540408D01*
X166751000Y-90540408D01*
X166751000Y-90815592D01*
X166804686Y-91085490D01*
X166909995Y-91339727D01*
X167062880Y-91568535D01*
X167257465Y-91763120D01*
X167486273Y-91916005D01*
X167563515Y-91948000D01*
X167486273Y-91979995D01*
X167257465Y-92132880D01*
X167062880Y-92327465D01*
X166909995Y-92556273D01*
X166804686Y-92810510D01*
X166751000Y-93080408D01*
X166751000Y-93355592D01*
X166804686Y-93625490D01*
X166909995Y-93879727D01*
X167062880Y-94108535D01*
X167257465Y-94303120D01*
X167486273Y-94456005D01*
X167740510Y-94561314D01*
X168010408Y-94615000D01*
X168285592Y-94615000D01*
X168555490Y-94561314D01*
X168809727Y-94456005D01*
X169038535Y-94303120D01*
X169233120Y-94108535D01*
X169386005Y-93879727D01*
X169491314Y-93625490D01*
X169545000Y-93355592D01*
X169545000Y-93080408D01*
X169491314Y-92810510D01*
X169386005Y-92556273D01*
X169233120Y-92327465D01*
X169038535Y-92132880D01*
X168809727Y-91979995D01*
X168732485Y-91948000D01*
X168809727Y-91916005D01*
X169038535Y-91763120D01*
X169233120Y-91568535D01*
X169386005Y-91339727D01*
X169491314Y-91085490D01*
X169545000Y-90815592D01*
X169545000Y-90540408D01*
X169491314Y-90270510D01*
X169386005Y-90016273D01*
X169233120Y-89787465D01*
X169038535Y-89592880D01*
X168809727Y-89439995D01*
X168555490Y-89334686D01*
X168285592Y-89281000D01*
X168010408Y-89281000D01*
X167740510Y-89334686D01*
X167486273Y-89439995D01*
X167257465Y-89592880D01*
X167062880Y-89787465D01*
X166909995Y-90016273D01*
X166804686Y-90270510D01*
X166751000Y-90540408D01*
X164465000Y-90540408D01*
X164411314Y-90270510D01*
X164306005Y-90016273D01*
X164153120Y-89787465D01*
X163958535Y-89592880D01*
X163729727Y-89439995D01*
X163475490Y-89334686D01*
X163205592Y-89281000D01*
X162930408Y-89281000D01*
X162660510Y-89334686D01*
X162406273Y-89439995D01*
X162177465Y-89592880D01*
X161982880Y-89787465D01*
X161829995Y-90016273D01*
X161724686Y-90270510D01*
X161671000Y-90540408D01*
X156564855Y-90540408D01*
X156326969Y-90184387D01*
X155941613Y-89799031D01*
X155488483Y-89496259D01*
X154984991Y-89287706D01*
X154450488Y-89181386D01*
X153905512Y-89181386D01*
X153371009Y-89287706D01*
X152867517Y-89496259D01*
X152414387Y-89799031D01*
X152029031Y-90184387D01*
X151726259Y-90637517D01*
X151517706Y-91141009D01*
X151411386Y-91675512D01*
X141704614Y-91675512D01*
X141598294Y-91141009D01*
X141389741Y-90637517D01*
X141086969Y-90184387D01*
X140701613Y-89799031D01*
X140248483Y-89496259D01*
X139744991Y-89287706D01*
X139210488Y-89181386D01*
X138665512Y-89181386D01*
X138131009Y-89287706D01*
X137627517Y-89496259D01*
X137174387Y-89799031D01*
X136789031Y-90184387D01*
X136486259Y-90637517D01*
X136277706Y-91141009D01*
X136171386Y-91675512D01*
X131026143Y-91675512D01*
X131133120Y-91568535D01*
X131286005Y-91339727D01*
X131391314Y-91085490D01*
X131445000Y-90815592D01*
X131445000Y-90540408D01*
X131391314Y-90270510D01*
X131286005Y-90016273D01*
X131133120Y-89787465D01*
X130938535Y-89592880D01*
X130709727Y-89439995D01*
X130455490Y-89334686D01*
X130185592Y-89281000D01*
X129910408Y-89281000D01*
X129640510Y-89334686D01*
X129386273Y-89439995D01*
X129157465Y-89592880D01*
X128962880Y-89787465D01*
X128809995Y-90016273D01*
X128704686Y-90270510D01*
X128651000Y-90540408D01*
X126365000Y-90540408D01*
X126311314Y-90270510D01*
X126206005Y-90016273D01*
X126053120Y-89787465D01*
X125858535Y-89592880D01*
X125629727Y-89439995D01*
X125375490Y-89334686D01*
X125105592Y-89281000D01*
X124830408Y-89281000D01*
X124560510Y-89334686D01*
X124306273Y-89439995D01*
X124077465Y-89592880D01*
X123882880Y-89787465D01*
X123729995Y-90016273D01*
X123624686Y-90270510D01*
X123571000Y-90540408D01*
X118029142Y-90540408D01*
X118055144Y-89837228D01*
X118288867Y-87737984D01*
X118477915Y-86726665D01*
X120993000Y-86726665D01*
X120993000Y-87009335D01*
X121048147Y-87286574D01*
X121156320Y-87547727D01*
X121313363Y-87782759D01*
X121513241Y-87982637D01*
X121748273Y-88139680D01*
X122009426Y-88247853D01*
X122286665Y-88303000D01*
X122569335Y-88303000D01*
X122846574Y-88247853D01*
X123107727Y-88139680D01*
X123342759Y-87982637D01*
X123542637Y-87782759D01*
X123699680Y-87547727D01*
X123807853Y-87286574D01*
X123863000Y-87009335D01*
X123863000Y-86726665D01*
X131153000Y-86726665D01*
X131153000Y-87009335D01*
X131208147Y-87286574D01*
X131316320Y-87547727D01*
X131473363Y-87782759D01*
X131673241Y-87982637D01*
X131908273Y-88139680D01*
X132169426Y-88247853D01*
X132446665Y-88303000D01*
X132729335Y-88303000D01*
X133006574Y-88247853D01*
X133267727Y-88139680D01*
X133502759Y-87982637D01*
X133702637Y-87782759D01*
X133859680Y-87547727D01*
X133967853Y-87286574D01*
X134023000Y-87009335D01*
X134023000Y-86726665D01*
X133967853Y-86449426D01*
X133859680Y-86188273D01*
X133702637Y-85953241D01*
X133502759Y-85753363D01*
X133267727Y-85596320D01*
X133006574Y-85488147D01*
X132729335Y-85433000D01*
X132446665Y-85433000D01*
X132169426Y-85488147D01*
X131908273Y-85596320D01*
X131673241Y-85753363D01*
X131473363Y-85953241D01*
X131316320Y-86188273D01*
X131208147Y-86449426D01*
X131153000Y-86726665D01*
X123863000Y-86726665D01*
X123807853Y-86449426D01*
X123699680Y-86188273D01*
X123542637Y-85953241D01*
X123342759Y-85753363D01*
X123107727Y-85596320D01*
X122846574Y-85488147D01*
X122569335Y-85433000D01*
X122286665Y-85433000D01*
X122009426Y-85488147D01*
X121748273Y-85596320D01*
X121513241Y-85753363D01*
X121313363Y-85953241D01*
X121156320Y-86188273D01*
X121048147Y-86449426D01*
X120993000Y-86726665D01*
X118477915Y-86726665D01*
X118676985Y-85661734D01*
X119217380Y-83619817D01*
X119460302Y-82916665D01*
X120993000Y-82916665D01*
X120993000Y-83199335D01*
X121048147Y-83476574D01*
X121156320Y-83737727D01*
X121313363Y-83972759D01*
X121513241Y-84172637D01*
X121748273Y-84329680D01*
X122009426Y-84437853D01*
X122286665Y-84493000D01*
X122569335Y-84493000D01*
X122846574Y-84437853D01*
X123107727Y-84329680D01*
X123342759Y-84172637D01*
X123542637Y-83972759D01*
X123699680Y-83737727D01*
X123807853Y-83476574D01*
X123863000Y-83199335D01*
X123863000Y-82916665D01*
X131153000Y-82916665D01*
X131153000Y-83199335D01*
X131208147Y-83476574D01*
X131316320Y-83737727D01*
X131473363Y-83972759D01*
X131673241Y-84172637D01*
X131908273Y-84329680D01*
X132169426Y-84437853D01*
X132446665Y-84493000D01*
X132729335Y-84493000D01*
X133006574Y-84437853D01*
X133267727Y-84329680D01*
X133502759Y-84172637D01*
X133619884Y-84055512D01*
X143791386Y-84055512D01*
X143791386Y-84600488D01*
X143897706Y-85134991D01*
X144106259Y-85638483D01*
X144409031Y-86091613D01*
X144794387Y-86476969D01*
X145247517Y-86779741D01*
X145751009Y-86988294D01*
X146285512Y-87094614D01*
X146830488Y-87094614D01*
X147364991Y-86988294D01*
X147868483Y-86779741D01*
X148321613Y-86476969D01*
X148706969Y-86091613D01*
X149009741Y-85638483D01*
X149119077Y-85374521D01*
X150638979Y-85374521D01*
X150638979Y-85821479D01*
X150726176Y-86259849D01*
X150897220Y-86672785D01*
X151145536Y-87044417D01*
X151461583Y-87360464D01*
X151833215Y-87608780D01*
X152246151Y-87779824D01*
X152684521Y-87867021D01*
X153131479Y-87867021D01*
X153569849Y-87779824D01*
X153982785Y-87608780D01*
X154354417Y-87360464D01*
X154670464Y-87044417D01*
X154882778Y-86726665D01*
X159093000Y-86726665D01*
X159093000Y-87009335D01*
X159148147Y-87286574D01*
X159256320Y-87547727D01*
X159413363Y-87782759D01*
X159613241Y-87982637D01*
X159848273Y-88139680D01*
X160109426Y-88247853D01*
X160386665Y-88303000D01*
X160669335Y-88303000D01*
X160946574Y-88247853D01*
X161207727Y-88139680D01*
X161442759Y-87982637D01*
X161642637Y-87782759D01*
X161799680Y-87547727D01*
X161907853Y-87286574D01*
X161963000Y-87009335D01*
X161963000Y-86726665D01*
X169253000Y-86726665D01*
X169253000Y-87009335D01*
X169308147Y-87286574D01*
X169416320Y-87547727D01*
X169573363Y-87782759D01*
X169773241Y-87982637D01*
X170008273Y-88139680D01*
X170269426Y-88247853D01*
X170546665Y-88303000D01*
X170829335Y-88303000D01*
X171106574Y-88247853D01*
X171367727Y-88139680D01*
X171602759Y-87982637D01*
X171802637Y-87782759D01*
X171959680Y-87547727D01*
X172067853Y-87286574D01*
X172123000Y-87009335D01*
X172123000Y-86726665D01*
X172067853Y-86449426D01*
X171959680Y-86188273D01*
X171802637Y-85953241D01*
X171602759Y-85753363D01*
X171367727Y-85596320D01*
X171106574Y-85488147D01*
X170829335Y-85433000D01*
X170546665Y-85433000D01*
X170269426Y-85488147D01*
X170008273Y-85596320D01*
X169773241Y-85753363D01*
X169573363Y-85953241D01*
X169416320Y-86188273D01*
X169308147Y-86449426D01*
X169253000Y-86726665D01*
X161963000Y-86726665D01*
X161907853Y-86449426D01*
X161799680Y-86188273D01*
X161642637Y-85953241D01*
X161442759Y-85753363D01*
X161207727Y-85596320D01*
X160946574Y-85488147D01*
X160669335Y-85433000D01*
X160386665Y-85433000D01*
X160109426Y-85488147D01*
X159848273Y-85596320D01*
X159613241Y-85753363D01*
X159413363Y-85953241D01*
X159256320Y-86188273D01*
X159148147Y-86449426D01*
X159093000Y-86726665D01*
X154882778Y-86726665D01*
X154918780Y-86672785D01*
X155089824Y-86259849D01*
X155177021Y-85821479D01*
X155177021Y-85374521D01*
X155089824Y-84936151D01*
X154918780Y-84523215D01*
X154670464Y-84151583D01*
X154354417Y-83835536D01*
X153982785Y-83587220D01*
X153569849Y-83416176D01*
X153131479Y-83328979D01*
X152684521Y-83328979D01*
X152246151Y-83416176D01*
X151833215Y-83587220D01*
X151461583Y-83835536D01*
X151145536Y-84151583D01*
X150897220Y-84523215D01*
X150726176Y-84936151D01*
X150638979Y-85374521D01*
X149119077Y-85374521D01*
X149218294Y-85134991D01*
X149324614Y-84600488D01*
X149324614Y-84055512D01*
X149218294Y-83521009D01*
X149009741Y-83017517D01*
X148942354Y-82916665D01*
X159093000Y-82916665D01*
X159093000Y-83199335D01*
X159148147Y-83476574D01*
X159256320Y-83737727D01*
X159413363Y-83972759D01*
X159613241Y-84172637D01*
X159848273Y-84329680D01*
X160109426Y-84437853D01*
X160386665Y-84493000D01*
X160669335Y-84493000D01*
X160946574Y-84437853D01*
X161207727Y-84329680D01*
X161442759Y-84172637D01*
X161642637Y-83972759D01*
X161799680Y-83737727D01*
X161907853Y-83476574D01*
X161963000Y-83199335D01*
X161963000Y-82916665D01*
X169253000Y-82916665D01*
X169253000Y-83199335D01*
X169308147Y-83476574D01*
X169416320Y-83737727D01*
X169573363Y-83972759D01*
X169773241Y-84172637D01*
X170008273Y-84329680D01*
X170269426Y-84437853D01*
X170546665Y-84493000D01*
X170829335Y-84493000D01*
X171106574Y-84437853D01*
X171367727Y-84329680D01*
X171602759Y-84172637D01*
X171802637Y-83972759D01*
X171959680Y-83737727D01*
X172067853Y-83476574D01*
X172123000Y-83199335D01*
X172123000Y-82916665D01*
X172067853Y-82639426D01*
X171959680Y-82378273D01*
X171802637Y-82143241D01*
X171602759Y-81943363D01*
X171367727Y-81786320D01*
X171106574Y-81678147D01*
X170829335Y-81623000D01*
X170546665Y-81623000D01*
X170269426Y-81678147D01*
X170008273Y-81786320D01*
X169773241Y-81943363D01*
X169573363Y-82143241D01*
X169416320Y-82378273D01*
X169308147Y-82639426D01*
X169253000Y-82916665D01*
X161963000Y-82916665D01*
X161907853Y-82639426D01*
X161799680Y-82378273D01*
X161642637Y-82143241D01*
X161442759Y-81943363D01*
X161207727Y-81786320D01*
X160946574Y-81678147D01*
X160669335Y-81623000D01*
X160386665Y-81623000D01*
X160109426Y-81678147D01*
X159848273Y-81786320D01*
X159613241Y-81943363D01*
X159413363Y-82143241D01*
X159256320Y-82378273D01*
X159148147Y-82639426D01*
X159093000Y-82916665D01*
X148942354Y-82916665D01*
X148706969Y-82564387D01*
X148321613Y-82179031D01*
X147868483Y-81876259D01*
X147364991Y-81667706D01*
X146830488Y-81561386D01*
X146285512Y-81561386D01*
X145751009Y-81667706D01*
X145247517Y-81876259D01*
X144794387Y-82179031D01*
X144409031Y-82564387D01*
X144106259Y-83017517D01*
X143897706Y-83521009D01*
X143791386Y-84055512D01*
X133619884Y-84055512D01*
X133702637Y-83972759D01*
X133859680Y-83737727D01*
X133967853Y-83476574D01*
X134023000Y-83199335D01*
X134023000Y-82916665D01*
X133967853Y-82639426D01*
X133859680Y-82378273D01*
X133702637Y-82143241D01*
X133502759Y-81943363D01*
X133267727Y-81786320D01*
X133006574Y-81678147D01*
X132729335Y-81623000D01*
X132446665Y-81623000D01*
X132169426Y-81678147D01*
X131908273Y-81786320D01*
X131673241Y-81943363D01*
X131473363Y-82143241D01*
X131316320Y-82378273D01*
X131208147Y-82639426D01*
X131153000Y-82916665D01*
X123863000Y-82916665D01*
X123807853Y-82639426D01*
X123699680Y-82378273D01*
X123542637Y-82143241D01*
X123342759Y-81943363D01*
X123107727Y-81786320D01*
X122846574Y-81678147D01*
X122569335Y-81623000D01*
X122286665Y-81623000D01*
X122009426Y-81678147D01*
X121748273Y-81786320D01*
X121513241Y-81943363D01*
X121313363Y-82143241D01*
X121156320Y-82378273D01*
X121048147Y-82639426D01*
X120993000Y-82916665D01*
X119460302Y-82916665D01*
X119907100Y-81623386D01*
X120742378Y-79683345D01*
X121702951Y-77840408D01*
X123571000Y-77840408D01*
X123571000Y-78115592D01*
X123624686Y-78385490D01*
X123729995Y-78639727D01*
X123882880Y-78868535D01*
X124077465Y-79063120D01*
X124306273Y-79216005D01*
X124383515Y-79248000D01*
X124306273Y-79279995D01*
X124077465Y-79432880D01*
X123882880Y-79627465D01*
X123729995Y-79856273D01*
X123624686Y-80110510D01*
X123571000Y-80380408D01*
X123571000Y-80655592D01*
X123624686Y-80925490D01*
X123729995Y-81179727D01*
X123882880Y-81408535D01*
X124077465Y-81603120D01*
X124306273Y-81756005D01*
X124560510Y-81861314D01*
X124830408Y-81915000D01*
X125105592Y-81915000D01*
X125375490Y-81861314D01*
X125629727Y-81756005D01*
X125858535Y-81603120D01*
X126053120Y-81408535D01*
X126206005Y-81179727D01*
X126311314Y-80925490D01*
X126365000Y-80655592D01*
X126365000Y-80380408D01*
X126311314Y-80110510D01*
X126206005Y-79856273D01*
X126053120Y-79627465D01*
X125858535Y-79432880D01*
X125629727Y-79279995D01*
X125552485Y-79248000D01*
X125629727Y-79216005D01*
X125858535Y-79063120D01*
X126053120Y-78868535D01*
X126206005Y-78639727D01*
X126311314Y-78385490D01*
X126365000Y-78115592D01*
X126365000Y-77840408D01*
X128651000Y-77840408D01*
X128651000Y-78115592D01*
X128704686Y-78385490D01*
X128809995Y-78639727D01*
X128962880Y-78868535D01*
X129157465Y-79063120D01*
X129386273Y-79216005D01*
X129463515Y-79248000D01*
X129386273Y-79279995D01*
X129157465Y-79432880D01*
X128962880Y-79627465D01*
X128809995Y-79856273D01*
X128704686Y-80110510D01*
X128651000Y-80380408D01*
X128651000Y-80655592D01*
X128704686Y-80925490D01*
X128809995Y-81179727D01*
X128962880Y-81408535D01*
X129157465Y-81603120D01*
X129386273Y-81756005D01*
X129640510Y-81861314D01*
X129910408Y-81915000D01*
X130185592Y-81915000D01*
X130455490Y-81861314D01*
X130709727Y-81756005D01*
X130938535Y-81603120D01*
X131133120Y-81408535D01*
X131286005Y-81179727D01*
X131391314Y-80925490D01*
X131445000Y-80655592D01*
X131445000Y-80380408D01*
X131391314Y-80110510D01*
X131286005Y-79856273D01*
X131133120Y-79627465D01*
X130938535Y-79432880D01*
X130709727Y-79279995D01*
X130632485Y-79248000D01*
X130709727Y-79216005D01*
X130938535Y-79063120D01*
X131133120Y-78868535D01*
X131286005Y-78639727D01*
X131391314Y-78385490D01*
X131445000Y-78115592D01*
X131445000Y-77840408D01*
X131444256Y-77836665D01*
X136233000Y-77836665D01*
X136233000Y-78119335D01*
X136288147Y-78396574D01*
X136396320Y-78657727D01*
X136553363Y-78892759D01*
X136753241Y-79092637D01*
X136988273Y-79249680D01*
X137249426Y-79357853D01*
X137526665Y-79413000D01*
X137809335Y-79413000D01*
X138086574Y-79357853D01*
X138347727Y-79249680D01*
X138582759Y-79092637D01*
X138782637Y-78892759D01*
X138939680Y-78657727D01*
X139047853Y-78396574D01*
X139103000Y-78119335D01*
X139103000Y-77836665D01*
X140043000Y-77836665D01*
X140043000Y-78119335D01*
X140098147Y-78396574D01*
X140206320Y-78657727D01*
X140363363Y-78892759D01*
X140563241Y-79092637D01*
X140798273Y-79249680D01*
X141059426Y-79357853D01*
X141336665Y-79413000D01*
X141619335Y-79413000D01*
X141896574Y-79357853D01*
X142157727Y-79249680D01*
X142392759Y-79092637D01*
X142592637Y-78892759D01*
X142749680Y-78657727D01*
X142857853Y-78396574D01*
X142913000Y-78119335D01*
X142913000Y-77836665D01*
X150203000Y-77836665D01*
X150203000Y-78119335D01*
X150258147Y-78396574D01*
X150366320Y-78657727D01*
X150523363Y-78892759D01*
X150723241Y-79092637D01*
X150958273Y-79249680D01*
X151219426Y-79357853D01*
X151496665Y-79413000D01*
X151779335Y-79413000D01*
X152056574Y-79357853D01*
X152317727Y-79249680D01*
X152552759Y-79092637D01*
X152752637Y-78892759D01*
X152909680Y-78657727D01*
X153017853Y-78396574D01*
X153073000Y-78119335D01*
X153073000Y-77836665D01*
X154013000Y-77836665D01*
X154013000Y-78119335D01*
X154068147Y-78396574D01*
X154176320Y-78657727D01*
X154333363Y-78892759D01*
X154533241Y-79092637D01*
X154768273Y-79249680D01*
X155029426Y-79357853D01*
X155306665Y-79413000D01*
X155589335Y-79413000D01*
X155866574Y-79357853D01*
X156127727Y-79249680D01*
X156362759Y-79092637D01*
X156562637Y-78892759D01*
X156719680Y-78657727D01*
X156827853Y-78396574D01*
X156883000Y-78119335D01*
X156883000Y-77836665D01*
X156827853Y-77559426D01*
X156719680Y-77298273D01*
X156562637Y-77063241D01*
X156362759Y-76863363D01*
X156127727Y-76706320D01*
X155866574Y-76598147D01*
X155589335Y-76543000D01*
X155306665Y-76543000D01*
X155029426Y-76598147D01*
X154768273Y-76706320D01*
X154533241Y-76863363D01*
X154333363Y-77063241D01*
X154176320Y-77298273D01*
X154068147Y-77559426D01*
X154013000Y-77836665D01*
X153073000Y-77836665D01*
X153017853Y-77559426D01*
X152909680Y-77298273D01*
X152752637Y-77063241D01*
X152552759Y-76863363D01*
X152317727Y-76706320D01*
X152056574Y-76598147D01*
X151779335Y-76543000D01*
X151496665Y-76543000D01*
X151219426Y-76598147D01*
X150958273Y-76706320D01*
X150723241Y-76863363D01*
X150523363Y-77063241D01*
X150366320Y-77298273D01*
X150258147Y-77559426D01*
X150203000Y-77836665D01*
X142913000Y-77836665D01*
X142857853Y-77559426D01*
X142749680Y-77298273D01*
X142592637Y-77063241D01*
X142392759Y-76863363D01*
X142157727Y-76706320D01*
X141896574Y-76598147D01*
X141619335Y-76543000D01*
X141336665Y-76543000D01*
X141059426Y-76598147D01*
X140798273Y-76706320D01*
X140563241Y-76863363D01*
X140363363Y-77063241D01*
X140206320Y-77298273D01*
X140098147Y-77559426D01*
X140043000Y-77836665D01*
X139103000Y-77836665D01*
X139047853Y-77559426D01*
X138939680Y-77298273D01*
X138782637Y-77063241D01*
X138582759Y-76863363D01*
X138347727Y-76706320D01*
X138086574Y-76598147D01*
X137809335Y-76543000D01*
X137526665Y-76543000D01*
X137249426Y-76598147D01*
X136988273Y-76706320D01*
X136753241Y-76863363D01*
X136553363Y-77063241D01*
X136396320Y-77298273D01*
X136288147Y-77559426D01*
X136233000Y-77836665D01*
X131444256Y-77836665D01*
X131391314Y-77570510D01*
X131286005Y-77316273D01*
X131133120Y-77087465D01*
X130938535Y-76892880D01*
X130709727Y-76739995D01*
X130455490Y-76634686D01*
X130185592Y-76581000D01*
X129910408Y-76581000D01*
X129640510Y-76634686D01*
X129386273Y-76739995D01*
X129157465Y-76892880D01*
X128962880Y-77087465D01*
X128809995Y-77316273D01*
X128704686Y-77570510D01*
X128651000Y-77840408D01*
X126365000Y-77840408D01*
X126311314Y-77570510D01*
X126206005Y-77316273D01*
X126053120Y-77087465D01*
X125858535Y-76892880D01*
X125629727Y-76739995D01*
X125375490Y-76634686D01*
X125105592Y-76581000D01*
X124830408Y-76581000D01*
X124560510Y-76634686D01*
X124306273Y-76739995D01*
X124077465Y-76892880D01*
X123882880Y-77087465D01*
X123729995Y-77316273D01*
X123624686Y-77570510D01*
X123571000Y-77840408D01*
X121702951Y-77840408D01*
X121718651Y-77810288D01*
X122830589Y-76014447D01*
X123349369Y-75300408D01*
X143891000Y-75300408D01*
X143891000Y-75575592D01*
X143944686Y-75845490D01*
X144049995Y-76099727D01*
X144202880Y-76328535D01*
X144397465Y-76523120D01*
X144626273Y-76676005D01*
X144880510Y-76781314D01*
X145150408Y-76835000D01*
X145425592Y-76835000D01*
X145695490Y-76781314D01*
X145949727Y-76676005D01*
X146178535Y-76523120D01*
X146373120Y-76328535D01*
X146526005Y-76099727D01*
X146558000Y-76022485D01*
X146589995Y-76099727D01*
X146742880Y-76328535D01*
X146937465Y-76523120D01*
X147166273Y-76676005D01*
X147420510Y-76781314D01*
X147690408Y-76835000D01*
X147965592Y-76835000D01*
X148235490Y-76781314D01*
X148489727Y-76676005D01*
X148718535Y-76523120D01*
X148913120Y-76328535D01*
X149066005Y-76099727D01*
X149171314Y-75845490D01*
X149225000Y-75575592D01*
X149225000Y-75300408D01*
X156591000Y-75300408D01*
X156591000Y-75575592D01*
X156644686Y-75845490D01*
X156749995Y-76099727D01*
X156902880Y-76328535D01*
X157097465Y-76523120D01*
X157326273Y-76676005D01*
X157580510Y-76781314D01*
X157850408Y-76835000D01*
X158125592Y-76835000D01*
X158395490Y-76781314D01*
X158649727Y-76676005D01*
X158878535Y-76523120D01*
X159073120Y-76328535D01*
X159226005Y-76099727D01*
X159258000Y-76022485D01*
X159289995Y-76099727D01*
X159442880Y-76328535D01*
X159637465Y-76523120D01*
X159866273Y-76676005D01*
X160120510Y-76781314D01*
X160390408Y-76835000D01*
X160665592Y-76835000D01*
X160935490Y-76781314D01*
X161189727Y-76676005D01*
X161418535Y-76523120D01*
X161613120Y-76328535D01*
X161766005Y-76099727D01*
X161871314Y-75845490D01*
X161925000Y-75575592D01*
X161925000Y-75300408D01*
X161871314Y-75030510D01*
X161766005Y-74776273D01*
X161613120Y-74547465D01*
X161418535Y-74352880D01*
X161189727Y-74199995D01*
X160935490Y-74094686D01*
X160665592Y-74041000D01*
X160390408Y-74041000D01*
X160120510Y-74094686D01*
X159866273Y-74199995D01*
X159637465Y-74352880D01*
X159442880Y-74547465D01*
X159289995Y-74776273D01*
X159258000Y-74853515D01*
X159226005Y-74776273D01*
X159073120Y-74547465D01*
X158878535Y-74352880D01*
X158649727Y-74199995D01*
X158395490Y-74094686D01*
X158125592Y-74041000D01*
X157850408Y-74041000D01*
X157580510Y-74094686D01*
X157326273Y-74199995D01*
X157097465Y-74352880D01*
X156902880Y-74547465D01*
X156749995Y-74776273D01*
X156644686Y-75030510D01*
X156591000Y-75300408D01*
X149225000Y-75300408D01*
X149171314Y-75030510D01*
X149066005Y-74776273D01*
X148913120Y-74547465D01*
X148718535Y-74352880D01*
X148489727Y-74199995D01*
X148235490Y-74094686D01*
X147965592Y-74041000D01*
X147690408Y-74041000D01*
X147420510Y-74094686D01*
X147166273Y-74199995D01*
X146937465Y-74352880D01*
X146742880Y-74547465D01*
X146589995Y-74776273D01*
X146558000Y-74853515D01*
X146526005Y-74776273D01*
X146373120Y-74547465D01*
X146178535Y-74352880D01*
X145949727Y-74199995D01*
X145695490Y-74094686D01*
X145425592Y-74041000D01*
X145150408Y-74041000D01*
X144880510Y-74094686D01*
X144626273Y-74199995D01*
X144397465Y-74352880D01*
X144202880Y-74547465D01*
X144049995Y-74776273D01*
X143944686Y-75030510D01*
X143891000Y-75300408D01*
X123349369Y-75300408D01*
X124072118Y-74305630D01*
X125436456Y-72693169D01*
X126916154Y-71185871D01*
X128015345Y-70220408D01*
X143891000Y-70220408D01*
X143891000Y-70495592D01*
X143944686Y-70765490D01*
X144049995Y-71019727D01*
X144202880Y-71248535D01*
X144397465Y-71443120D01*
X144626273Y-71596005D01*
X144880510Y-71701314D01*
X145150408Y-71755000D01*
X145425592Y-71755000D01*
X145695490Y-71701314D01*
X145949727Y-71596005D01*
X146178535Y-71443120D01*
X146373120Y-71248535D01*
X146526005Y-71019727D01*
X146558000Y-70942485D01*
X146589995Y-71019727D01*
X146742880Y-71248535D01*
X146937465Y-71443120D01*
X147166273Y-71596005D01*
X147420510Y-71701314D01*
X147690408Y-71755000D01*
X147965592Y-71755000D01*
X148235490Y-71701314D01*
X148489727Y-71596005D01*
X148718535Y-71443120D01*
X148913120Y-71248535D01*
X149066005Y-71019727D01*
X149171314Y-70765490D01*
X149225000Y-70495592D01*
X149225000Y-70220408D01*
X156591000Y-70220408D01*
X156591000Y-70495592D01*
X156644686Y-70765490D01*
X156749995Y-71019727D01*
X156902880Y-71248535D01*
X157097465Y-71443120D01*
X157326273Y-71596005D01*
X157580510Y-71701314D01*
X157850408Y-71755000D01*
X158125592Y-71755000D01*
X158395490Y-71701314D01*
X158649727Y-71596005D01*
X158878535Y-71443120D01*
X159073120Y-71248535D01*
X159226005Y-71019727D01*
X159258000Y-70942485D01*
X159289995Y-71019727D01*
X159442880Y-71248535D01*
X159637465Y-71443120D01*
X159866273Y-71596005D01*
X160120510Y-71701314D01*
X160390408Y-71755000D01*
X160665592Y-71755000D01*
X160935490Y-71701314D01*
X161189727Y-71596005D01*
X161418535Y-71443120D01*
X161613120Y-71248535D01*
X161766005Y-71019727D01*
X161871314Y-70765490D01*
X161925000Y-70495592D01*
X161925000Y-70220408D01*
X161871314Y-69950510D01*
X161766005Y-69696273D01*
X161613120Y-69467465D01*
X161418535Y-69272880D01*
X161189727Y-69119995D01*
X160935490Y-69014686D01*
X160665592Y-68961000D01*
X160390408Y-68961000D01*
X160120510Y-69014686D01*
X159866273Y-69119995D01*
X159637465Y-69272880D01*
X159442880Y-69467465D01*
X159289995Y-69696273D01*
X159258000Y-69773515D01*
X159226005Y-69696273D01*
X159073120Y-69467465D01*
X158878535Y-69272880D01*
X158649727Y-69119995D01*
X158395490Y-69014686D01*
X158125592Y-68961000D01*
X157850408Y-68961000D01*
X157580510Y-69014686D01*
X157326273Y-69119995D01*
X157097465Y-69272880D01*
X156902880Y-69467465D01*
X156749995Y-69696273D01*
X156644686Y-69950510D01*
X156591000Y-70220408D01*
X149225000Y-70220408D01*
X149171314Y-69950510D01*
X149066005Y-69696273D01*
X148913120Y-69467465D01*
X148718535Y-69272880D01*
X148489727Y-69119995D01*
X148235490Y-69014686D01*
X147965592Y-68961000D01*
X147690408Y-68961000D01*
X147420510Y-69014686D01*
X147166273Y-69119995D01*
X146937465Y-69272880D01*
X146742880Y-69467465D01*
X146589995Y-69696273D01*
X146558000Y-69773515D01*
X146526005Y-69696273D01*
X146373120Y-69467465D01*
X146178535Y-69272880D01*
X145949727Y-69119995D01*
X145695490Y-69014686D01*
X145425592Y-68961000D01*
X145150408Y-68961000D01*
X144880510Y-69014686D01*
X144626273Y-69119995D01*
X144397465Y-69272880D01*
X144202880Y-69467465D01*
X144049995Y-69696273D01*
X143944686Y-69950510D01*
X143891000Y-70220408D01*
X128015345Y-70220408D01*
X128503128Y-69791969D01*
X130188711Y-68519075D01*
X131494697Y-67676665D01*
X136233000Y-67676665D01*
X136233000Y-67959335D01*
X136288147Y-68236574D01*
X136396320Y-68497727D01*
X136553363Y-68732759D01*
X136753241Y-68932637D01*
X136988273Y-69089680D01*
X137249426Y-69197853D01*
X137526665Y-69253000D01*
X137809335Y-69253000D01*
X138086574Y-69197853D01*
X138347727Y-69089680D01*
X138582759Y-68932637D01*
X138782637Y-68732759D01*
X138939680Y-68497727D01*
X139047853Y-68236574D01*
X139103000Y-67959335D01*
X139103000Y-67676665D01*
X140043000Y-67676665D01*
X140043000Y-67959335D01*
X140098147Y-68236574D01*
X140206320Y-68497727D01*
X140363363Y-68732759D01*
X140563241Y-68932637D01*
X140798273Y-69089680D01*
X141059426Y-69197853D01*
X141336665Y-69253000D01*
X141619335Y-69253000D01*
X141896574Y-69197853D01*
X142157727Y-69089680D01*
X142392759Y-68932637D01*
X142592637Y-68732759D01*
X142749680Y-68497727D01*
X142857853Y-68236574D01*
X142913000Y-67959335D01*
X142913000Y-67676665D01*
X150203000Y-67676665D01*
X150203000Y-67959335D01*
X150258147Y-68236574D01*
X150366320Y-68497727D01*
X150523363Y-68732759D01*
X150723241Y-68932637D01*
X150958273Y-69089680D01*
X151219426Y-69197853D01*
X151496665Y-69253000D01*
X151779335Y-69253000D01*
X152056574Y-69197853D01*
X152317727Y-69089680D01*
X152552759Y-68932637D01*
X152752637Y-68732759D01*
X152909680Y-68497727D01*
X153017853Y-68236574D01*
X153073000Y-67959335D01*
X153073000Y-67676665D01*
X154013000Y-67676665D01*
X154013000Y-67959335D01*
X154068147Y-68236574D01*
X154176320Y-68497727D01*
X154333363Y-68732759D01*
X154533241Y-68932637D01*
X154768273Y-69089680D01*
X155029426Y-69197853D01*
X155306665Y-69253000D01*
X155589335Y-69253000D01*
X155866574Y-69197853D01*
X156127727Y-69089680D01*
X156362759Y-68932637D01*
X156562637Y-68732759D01*
X156719680Y-68497727D01*
X156827853Y-68236574D01*
X156883000Y-67959335D01*
X156883000Y-67676665D01*
X156827853Y-67399426D01*
X156719680Y-67138273D01*
X156562637Y-66903241D01*
X156362759Y-66703363D01*
X156127727Y-66546320D01*
X155866574Y-66438147D01*
X155589335Y-66383000D01*
X155306665Y-66383000D01*
X155029426Y-66438147D01*
X154768273Y-66546320D01*
X154533241Y-66703363D01*
X154333363Y-66903241D01*
X154176320Y-67138273D01*
X154068147Y-67399426D01*
X154013000Y-67676665D01*
X153073000Y-67676665D01*
X153017853Y-67399426D01*
X152909680Y-67138273D01*
X152752637Y-66903241D01*
X152552759Y-66703363D01*
X152317727Y-66546320D01*
X152056574Y-66438147D01*
X151779335Y-66383000D01*
X151496665Y-66383000D01*
X151219426Y-66438147D01*
X150958273Y-66546320D01*
X150723241Y-66703363D01*
X150523363Y-66903241D01*
X150366320Y-67138273D01*
X150258147Y-67399426D01*
X150203000Y-67676665D01*
X142913000Y-67676665D01*
X142857853Y-67399426D01*
X142749680Y-67138273D01*
X142592637Y-66903241D01*
X142392759Y-66703363D01*
X142157727Y-66546320D01*
X141896574Y-66438147D01*
X141619335Y-66383000D01*
X141336665Y-66383000D01*
X141059426Y-66438147D01*
X140798273Y-66546320D01*
X140563241Y-66703363D01*
X140363363Y-66903241D01*
X140206320Y-67138273D01*
X140098147Y-67399426D01*
X140043000Y-67676665D01*
X139103000Y-67676665D01*
X139047853Y-67399426D01*
X138939680Y-67138273D01*
X138782637Y-66903241D01*
X138582759Y-66703363D01*
X138347727Y-66546320D01*
X138086574Y-66438147D01*
X137809335Y-66383000D01*
X137526665Y-66383000D01*
X137249426Y-66438147D01*
X136988273Y-66546320D01*
X136753241Y-66703363D01*
X136553363Y-66903241D01*
X136396320Y-67138273D01*
X136288147Y-67399426D01*
X136233000Y-67676665D01*
X131494697Y-67676665D01*
X131963698Y-67374142D01*
X133818394Y-66363423D01*
X135742670Y-65492438D01*
X137726015Y-64765944D01*
X139757597Y-64187909D01*
X141826320Y-63761490D01*
X143920887Y-63489016D01*
X146029856Y-63371975D01*
X148141710Y-63411007D01*
G37*
X148141710Y-63411007D02*
X150244914Y-63605897D01*
X152327982Y-63955582D01*
X154379536Y-64458153D01*
X156388371Y-65110863D01*
X158343517Y-65910148D01*
X160234294Y-66851643D01*
X162050375Y-67930206D01*
X163781843Y-69139945D01*
X165419240Y-70474255D01*
X166953624Y-71925846D01*
X168376614Y-73486791D01*
X169680438Y-75148566D01*
X170857975Y-76902092D01*
X171902794Y-78737795D01*
X172809189Y-80645647D01*
X173572209Y-82615228D01*
X174187687Y-84635782D01*
X174652261Y-86696272D01*
X174963394Y-88785446D01*
X175119386Y-90891893D01*
X175119386Y-93004107D01*
X174963394Y-95110554D01*
X174652261Y-97199728D01*
X174187687Y-99260218D01*
X173572209Y-101280772D01*
X172809189Y-103250353D01*
X171902794Y-105158205D01*
X170857975Y-106993908D01*
X169680438Y-108747434D01*
X168376614Y-110409209D01*
X166953624Y-111970154D01*
X166738037Y-112174108D01*
X166774875Y-112085174D01*
X166830022Y-111807935D01*
X166830022Y-111525265D01*
X166774875Y-111248026D01*
X166666702Y-110986873D01*
X166509659Y-110751841D01*
X166309781Y-110551963D01*
X166074749Y-110394920D01*
X165813596Y-110286747D01*
X165536357Y-110231600D01*
X165253687Y-110231600D01*
X164976448Y-110286747D01*
X164715295Y-110394920D01*
X164480263Y-110551963D01*
X164280385Y-110751841D01*
X164123342Y-110986873D01*
X164015169Y-111248026D01*
X163960022Y-111525265D01*
X163960022Y-111807935D01*
X164015169Y-112085174D01*
X164123342Y-112346327D01*
X164280385Y-112581359D01*
X164480263Y-112781237D01*
X164715295Y-112938280D01*
X164976448Y-113046453D01*
X165253687Y-113101600D01*
X165536357Y-113101600D01*
X165813596Y-113046453D01*
X165817761Y-113044728D01*
X165419240Y-113421745D01*
X163781843Y-114756055D01*
X162050375Y-115965794D01*
X160234294Y-117044357D01*
X158343517Y-117985852D01*
X158244209Y-118026450D01*
X158351853Y-117766574D01*
X158407000Y-117489335D01*
X158407000Y-117206665D01*
X158351853Y-116929426D01*
X158243680Y-116668273D01*
X158086637Y-116433241D01*
X157886759Y-116233363D01*
X157651727Y-116076320D01*
X157390574Y-115968147D01*
X157113335Y-115913000D01*
X156830665Y-115913000D01*
X156553426Y-115968147D01*
X156292273Y-116076320D01*
X156057241Y-116233363D01*
X155857363Y-116433241D01*
X155700320Y-116668273D01*
X155592147Y-116929426D01*
X155537000Y-117206665D01*
X155537000Y-117489335D01*
X155592147Y-117766574D01*
X155700320Y-118027727D01*
X155857363Y-118262759D01*
X156057241Y-118462637D01*
X156292273Y-118619680D01*
X156541042Y-118722723D01*
X156388371Y-118785137D01*
X154379536Y-119437847D01*
X154209608Y-119479474D01*
X154287853Y-119290574D01*
X154343000Y-119013335D01*
X154343000Y-118730665D01*
X154287853Y-118453426D01*
X154179680Y-118192273D01*
X154022637Y-117957241D01*
X153822759Y-117757363D01*
X153587727Y-117600320D01*
X153326574Y-117492147D01*
X153049335Y-117437000D01*
X152766665Y-117437000D01*
X152489426Y-117492147D01*
X152228273Y-117600320D01*
X151993241Y-117757363D01*
X151793363Y-117957241D01*
X151636320Y-118192273D01*
X151528147Y-118453426D01*
X151473000Y-118730665D01*
X151473000Y-119013335D01*
X151528147Y-119290574D01*
X151636320Y-119551727D01*
X151793363Y-119786759D01*
X151993241Y-119986637D01*
X152005171Y-119994608D01*
X150244914Y-120290103D01*
X148141710Y-120484993D01*
X146029856Y-120524025D01*
X143920887Y-120406984D01*
X142993306Y-120286319D01*
X143166574Y-120251853D01*
X143427727Y-120143680D01*
X143662759Y-119986637D01*
X143862637Y-119786759D01*
X144019680Y-119551727D01*
X144127853Y-119290574D01*
X144183000Y-119013335D01*
X144183000Y-118730665D01*
X144127853Y-118453426D01*
X144019680Y-118192273D01*
X143862637Y-117957241D01*
X143662759Y-117757363D01*
X143427727Y-117600320D01*
X143166574Y-117492147D01*
X142889335Y-117437000D01*
X142606665Y-117437000D01*
X142329426Y-117492147D01*
X142068273Y-117600320D01*
X141833241Y-117757363D01*
X141633363Y-117957241D01*
X141476320Y-118192273D01*
X141368147Y-118453426D01*
X141313000Y-118730665D01*
X141313000Y-119013335D01*
X141368147Y-119290574D01*
X141476320Y-119551727D01*
X141633363Y-119786759D01*
X141833241Y-119986637D01*
X142068273Y-120143680D01*
X142146776Y-120176197D01*
X141826320Y-120134510D01*
X139757597Y-119708091D01*
X137726015Y-119130056D01*
X135742670Y-118403562D01*
X133818394Y-117532577D01*
X131963698Y-116521858D01*
X131056475Y-115936665D01*
X136233000Y-115936665D01*
X136233000Y-116219335D01*
X136288147Y-116496574D01*
X136396320Y-116757727D01*
X136553363Y-116992759D01*
X136753241Y-117192637D01*
X136988273Y-117349680D01*
X137249426Y-117457853D01*
X137526665Y-117513000D01*
X137809335Y-117513000D01*
X138086574Y-117457853D01*
X138347727Y-117349680D01*
X138582759Y-117192637D01*
X138782637Y-116992759D01*
X138939680Y-116757727D01*
X139047853Y-116496574D01*
X139103000Y-116219335D01*
X139103000Y-115936665D01*
X140043000Y-115936665D01*
X140043000Y-116219335D01*
X140098147Y-116496574D01*
X140206320Y-116757727D01*
X140363363Y-116992759D01*
X140563241Y-117192637D01*
X140798273Y-117349680D01*
X141059426Y-117457853D01*
X141336665Y-117513000D01*
X141619335Y-117513000D01*
X141896574Y-117457853D01*
X142157727Y-117349680D01*
X142392759Y-117192637D01*
X142592637Y-116992759D01*
X142749680Y-116757727D01*
X142857853Y-116496574D01*
X142913000Y-116219335D01*
X142913000Y-115936665D01*
X142857853Y-115659426D01*
X142749680Y-115398273D01*
X142592637Y-115163241D01*
X142392759Y-114963363D01*
X142157727Y-114806320D01*
X141896574Y-114698147D01*
X141619335Y-114643000D01*
X141336665Y-114643000D01*
X141059426Y-114698147D01*
X140798273Y-114806320D01*
X140563241Y-114963363D01*
X140363363Y-115163241D01*
X140206320Y-115398273D01*
X140098147Y-115659426D01*
X140043000Y-115936665D01*
X139103000Y-115936665D01*
X139047853Y-115659426D01*
X138939680Y-115398273D01*
X138782637Y-115163241D01*
X138582759Y-114963363D01*
X138347727Y-114806320D01*
X138086574Y-114698147D01*
X137809335Y-114643000D01*
X137526665Y-114643000D01*
X137249426Y-114698147D01*
X136988273Y-114806320D01*
X136753241Y-114963363D01*
X136553363Y-115163241D01*
X136396320Y-115398273D01*
X136288147Y-115659426D01*
X136233000Y-115936665D01*
X131056475Y-115936665D01*
X130188711Y-115376925D01*
X128503128Y-114104031D01*
X127702045Y-113400408D01*
X131191000Y-113400408D01*
X131191000Y-113675592D01*
X131244686Y-113945490D01*
X131349995Y-114199727D01*
X131502880Y-114428535D01*
X131697465Y-114623120D01*
X131926273Y-114776005D01*
X132180510Y-114881314D01*
X132450408Y-114935000D01*
X132725592Y-114935000D01*
X132995490Y-114881314D01*
X133249727Y-114776005D01*
X133478535Y-114623120D01*
X133673120Y-114428535D01*
X133826005Y-114199727D01*
X133858000Y-114122485D01*
X133889995Y-114199727D01*
X134042880Y-114428535D01*
X134237465Y-114623120D01*
X134466273Y-114776005D01*
X134720510Y-114881314D01*
X134990408Y-114935000D01*
X135265592Y-114935000D01*
X135535490Y-114881314D01*
X135789727Y-114776005D01*
X136018535Y-114623120D01*
X136213120Y-114428535D01*
X136366005Y-114199727D01*
X136471314Y-113945490D01*
X136525000Y-113675592D01*
X136525000Y-113400408D01*
X143891000Y-113400408D01*
X143891000Y-113675592D01*
X143944686Y-113945490D01*
X144049995Y-114199727D01*
X144202880Y-114428535D01*
X144397465Y-114623120D01*
X144626273Y-114776005D01*
X144880510Y-114881314D01*
X145150408Y-114935000D01*
X145425592Y-114935000D01*
X145695490Y-114881314D01*
X145949727Y-114776005D01*
X146178535Y-114623120D01*
X146373120Y-114428535D01*
X146526005Y-114199727D01*
X146558000Y-114122485D01*
X146589995Y-114199727D01*
X146742880Y-114428535D01*
X146937465Y-114623120D01*
X147166273Y-114776005D01*
X147420510Y-114881314D01*
X147690408Y-114935000D01*
X147965592Y-114935000D01*
X148235490Y-114881314D01*
X148489727Y-114776005D01*
X148718535Y-114623120D01*
X148913120Y-114428535D01*
X149066005Y-114199727D01*
X149171314Y-113945490D01*
X149225000Y-113675592D01*
X149225000Y-113400408D01*
X149171314Y-113130510D01*
X149066005Y-112876273D01*
X148913120Y-112647465D01*
X148718535Y-112452880D01*
X148489727Y-112299995D01*
X148235490Y-112194686D01*
X147965592Y-112141000D01*
X147690408Y-112141000D01*
X147420510Y-112194686D01*
X147166273Y-112299995D01*
X146937465Y-112452880D01*
X146742880Y-112647465D01*
X146589995Y-112876273D01*
X146558000Y-112953515D01*
X146526005Y-112876273D01*
X146373120Y-112647465D01*
X146178535Y-112452880D01*
X145949727Y-112299995D01*
X145695490Y-112194686D01*
X145425592Y-112141000D01*
X145150408Y-112141000D01*
X144880510Y-112194686D01*
X144626273Y-112299995D01*
X144397465Y-112452880D01*
X144202880Y-112647465D01*
X144049995Y-112876273D01*
X143944686Y-113130510D01*
X143891000Y-113400408D01*
X136525000Y-113400408D01*
X136471314Y-113130510D01*
X136366005Y-112876273D01*
X136213120Y-112647465D01*
X136018535Y-112452880D01*
X135789727Y-112299995D01*
X135535490Y-112194686D01*
X135265592Y-112141000D01*
X134990408Y-112141000D01*
X134720510Y-112194686D01*
X134466273Y-112299995D01*
X134237465Y-112452880D01*
X134042880Y-112647465D01*
X133889995Y-112876273D01*
X133858000Y-112953515D01*
X133826005Y-112876273D01*
X133673120Y-112647465D01*
X133478535Y-112452880D01*
X133249727Y-112299995D01*
X132995490Y-112194686D01*
X132725592Y-112141000D01*
X132450408Y-112141000D01*
X132180510Y-112194686D01*
X131926273Y-112299995D01*
X131697465Y-112452880D01*
X131502880Y-112647465D01*
X131349995Y-112876273D01*
X131244686Y-113130510D01*
X131191000Y-113400408D01*
X127702045Y-113400408D01*
X126916154Y-112710129D01*
X125580219Y-111349275D01*
X149321356Y-111349275D01*
X149352833Y-111610357D01*
X149434641Y-111860280D01*
X149531311Y-112032018D01*
X149778612Y-112385203D01*
X149906928Y-112534781D01*
X150113798Y-112697136D01*
X150348368Y-112816011D01*
X150601621Y-112886841D01*
X150853799Y-112906135D01*
X150777483Y-113090379D01*
X150720415Y-113377277D01*
X150720415Y-113669797D01*
X150777483Y-113956695D01*
X150889425Y-114226948D01*
X151051940Y-114470169D01*
X151258783Y-114677012D01*
X151502004Y-114839527D01*
X151772257Y-114951469D01*
X152059155Y-115008537D01*
X152351675Y-115008537D01*
X152638573Y-114951469D01*
X152908826Y-114839527D01*
X153152047Y-114677012D01*
X153358890Y-114470169D01*
X153521405Y-114226948D01*
X153633347Y-113956695D01*
X153690415Y-113669797D01*
X153690415Y-113427280D01*
X153852903Y-113494584D01*
X154139801Y-113551652D01*
X154432321Y-113551652D01*
X154719219Y-113494584D01*
X154989472Y-113382642D01*
X155232693Y-113220127D01*
X155439536Y-113013284D01*
X155602051Y-112770063D01*
X155713993Y-112499810D01*
X155771061Y-112212912D01*
X155771061Y-111970395D01*
X155933550Y-112037700D01*
X156220448Y-112094768D01*
X156512968Y-112094768D01*
X156799866Y-112037700D01*
X157070119Y-111925758D01*
X157313340Y-111763243D01*
X157520183Y-111556400D01*
X157682698Y-111313179D01*
X157794640Y-111042926D01*
X157851708Y-110756028D01*
X157851708Y-110513512D01*
X158014196Y-110580816D01*
X158301094Y-110637884D01*
X158593614Y-110637884D01*
X158880512Y-110580816D01*
X159150765Y-110468874D01*
X159393986Y-110306359D01*
X159600829Y-110099516D01*
X159763344Y-109856295D01*
X159875286Y-109586042D01*
X159917861Y-109372002D01*
X159976425Y-109417964D01*
X160088000Y-109474507D01*
X160208461Y-109508197D01*
X160333181Y-109517739D01*
X160457365Y-109502766D01*
X160576242Y-109463854D01*
X160685244Y-109402497D01*
X162077802Y-108427417D01*
X162172739Y-108345974D01*
X162249964Y-108247575D01*
X162306507Y-108136000D01*
X162340197Y-108015539D01*
X162349739Y-107890819D01*
X162334766Y-107766635D01*
X162295854Y-107647758D01*
X162234497Y-107538756D01*
X161259417Y-106146198D01*
X161177974Y-106051261D01*
X161079575Y-105974036D01*
X160968000Y-105917493D01*
X160847539Y-105883803D01*
X160722819Y-105874261D01*
X160598635Y-105889234D01*
X160481567Y-105927554D01*
X160498291Y-105708968D01*
X160466814Y-105447887D01*
X160385006Y-105197964D01*
X160288337Y-105026226D01*
X160041036Y-104673041D01*
X159912719Y-104523463D01*
X159705849Y-104361109D01*
X159471279Y-104242233D01*
X159218026Y-104171403D01*
X158955822Y-104151342D01*
X158694740Y-104182819D01*
X158444817Y-104264627D01*
X158215655Y-104393620D01*
X158016062Y-104564842D01*
X157853708Y-104771712D01*
X157734832Y-105006282D01*
X157664002Y-105259535D01*
X157643941Y-105521739D01*
X157675418Y-105782821D01*
X157708271Y-105883185D01*
X157625203Y-105817993D01*
X157390633Y-105699117D01*
X157137380Y-105628287D01*
X156875176Y-105608226D01*
X156614094Y-105639703D01*
X156364171Y-105721511D01*
X156135009Y-105850504D01*
X155935416Y-106021726D01*
X155773062Y-106228596D01*
X155654186Y-106463166D01*
X155583356Y-106716419D01*
X155563295Y-106978623D01*
X155594772Y-107239705D01*
X155627625Y-107340070D01*
X155544556Y-107274877D01*
X155309986Y-107156001D01*
X155056733Y-107085171D01*
X154794529Y-107065110D01*
X154533447Y-107096587D01*
X154283524Y-107178395D01*
X154054362Y-107307388D01*
X153854769Y-107478610D01*
X153692415Y-107685480D01*
X153573539Y-107920050D01*
X153502709Y-108173303D01*
X153482648Y-108435507D01*
X153514125Y-108696589D01*
X153546978Y-108796953D01*
X153463910Y-108731761D01*
X153229340Y-108612885D01*
X152976087Y-108542055D01*
X152713883Y-108521994D01*
X152452801Y-108553471D01*
X152202878Y-108635279D01*
X151973716Y-108764272D01*
X151774123Y-108935494D01*
X151611769Y-109142364D01*
X151492893Y-109376934D01*
X151422063Y-109630187D01*
X151402002Y-109892391D01*
X151433479Y-110153473D01*
X151466332Y-110253837D01*
X151383264Y-110188645D01*
X151148694Y-110069769D01*
X150895441Y-109998939D01*
X150633237Y-109978878D01*
X150372155Y-110010355D01*
X150122232Y-110092163D01*
X149893070Y-110221156D01*
X149693477Y-110392378D01*
X149531123Y-110599248D01*
X149412247Y-110833818D01*
X149341417Y-111087071D01*
X149321356Y-111349275D01*
X125580219Y-111349275D01*
X125436456Y-111202831D01*
X124072118Y-109590370D01*
X123149437Y-108320408D01*
X131191000Y-108320408D01*
X131191000Y-108595592D01*
X131244686Y-108865490D01*
X131349995Y-109119727D01*
X131502880Y-109348535D01*
X131697465Y-109543120D01*
X131926273Y-109696005D01*
X132180510Y-109801314D01*
X132450408Y-109855000D01*
X132725592Y-109855000D01*
X132995490Y-109801314D01*
X133249727Y-109696005D01*
X133478535Y-109543120D01*
X133673120Y-109348535D01*
X133826005Y-109119727D01*
X133858000Y-109042485D01*
X133889995Y-109119727D01*
X134042880Y-109348535D01*
X134237465Y-109543120D01*
X134466273Y-109696005D01*
X134720510Y-109801314D01*
X134990408Y-109855000D01*
X135265592Y-109855000D01*
X135535490Y-109801314D01*
X135789727Y-109696005D01*
X136018535Y-109543120D01*
X136213120Y-109348535D01*
X136366005Y-109119727D01*
X136471314Y-108865490D01*
X136525000Y-108595592D01*
X136525000Y-108320408D01*
X143891000Y-108320408D01*
X143891000Y-108595592D01*
X143944686Y-108865490D01*
X144049995Y-109119727D01*
X144202880Y-109348535D01*
X144397465Y-109543120D01*
X144626273Y-109696005D01*
X144880510Y-109801314D01*
X145150408Y-109855000D01*
X145425592Y-109855000D01*
X145695490Y-109801314D01*
X145949727Y-109696005D01*
X146178535Y-109543120D01*
X146373120Y-109348535D01*
X146526005Y-109119727D01*
X146558000Y-109042485D01*
X146589995Y-109119727D01*
X146742880Y-109348535D01*
X146937465Y-109543120D01*
X147166273Y-109696005D01*
X147420510Y-109801314D01*
X147690408Y-109855000D01*
X147965592Y-109855000D01*
X148235490Y-109801314D01*
X148489727Y-109696005D01*
X148718535Y-109543120D01*
X148913120Y-109348535D01*
X149066005Y-109119727D01*
X149171314Y-108865490D01*
X149225000Y-108595592D01*
X149225000Y-108320408D01*
X149171314Y-108050510D01*
X149066005Y-107796273D01*
X148913120Y-107567465D01*
X148718535Y-107372880D01*
X148489727Y-107219995D01*
X148235490Y-107114686D01*
X147965592Y-107061000D01*
X147690408Y-107061000D01*
X147420510Y-107114686D01*
X147166273Y-107219995D01*
X146937465Y-107372880D01*
X146742880Y-107567465D01*
X146589995Y-107796273D01*
X146558000Y-107873515D01*
X146526005Y-107796273D01*
X146373120Y-107567465D01*
X146178535Y-107372880D01*
X145949727Y-107219995D01*
X145695490Y-107114686D01*
X145425592Y-107061000D01*
X145150408Y-107061000D01*
X144880510Y-107114686D01*
X144626273Y-107219995D01*
X144397465Y-107372880D01*
X144202880Y-107567465D01*
X144049995Y-107796273D01*
X143944686Y-108050510D01*
X143891000Y-108320408D01*
X136525000Y-108320408D01*
X136471314Y-108050510D01*
X136366005Y-107796273D01*
X136213120Y-107567465D01*
X136018535Y-107372880D01*
X135789727Y-107219995D01*
X135535490Y-107114686D01*
X135265592Y-107061000D01*
X134990408Y-107061000D01*
X134720510Y-107114686D01*
X134466273Y-107219995D01*
X134237465Y-107372880D01*
X134042880Y-107567465D01*
X133889995Y-107796273D01*
X133858000Y-107873515D01*
X133826005Y-107796273D01*
X133673120Y-107567465D01*
X133478535Y-107372880D01*
X133249727Y-107219995D01*
X132995490Y-107114686D01*
X132725592Y-107061000D01*
X132450408Y-107061000D01*
X132180510Y-107114686D01*
X131926273Y-107219995D01*
X131697465Y-107372880D01*
X131502880Y-107567465D01*
X131349995Y-107796273D01*
X131244686Y-108050510D01*
X131191000Y-108320408D01*
X123149437Y-108320408D01*
X122830589Y-107881553D01*
X121718651Y-106085712D01*
X121557570Y-105776665D01*
X136233000Y-105776665D01*
X136233000Y-106059335D01*
X136288147Y-106336574D01*
X136396320Y-106597727D01*
X136553363Y-106832759D01*
X136753241Y-107032637D01*
X136988273Y-107189680D01*
X137249426Y-107297853D01*
X137526665Y-107353000D01*
X137809335Y-107353000D01*
X138086574Y-107297853D01*
X138347727Y-107189680D01*
X138582759Y-107032637D01*
X138782637Y-106832759D01*
X138939680Y-106597727D01*
X139047853Y-106336574D01*
X139103000Y-106059335D01*
X139103000Y-105776665D01*
X140043000Y-105776665D01*
X140043000Y-106059335D01*
X140098147Y-106336574D01*
X140206320Y-106597727D01*
X140363363Y-106832759D01*
X140563241Y-107032637D01*
X140798273Y-107189680D01*
X141059426Y-107297853D01*
X141336665Y-107353000D01*
X141619335Y-107353000D01*
X141896574Y-107297853D01*
X142157727Y-107189680D01*
X142392759Y-107032637D01*
X142592637Y-106832759D01*
X142749680Y-106597727D01*
X142857853Y-106336574D01*
X142913000Y-106059335D01*
X142913000Y-105776665D01*
X142857853Y-105499426D01*
X142749680Y-105238273D01*
X142592637Y-105003241D01*
X142392759Y-104803363D01*
X142157727Y-104646320D01*
X141896574Y-104538147D01*
X141619335Y-104483000D01*
X141336665Y-104483000D01*
X141059426Y-104538147D01*
X140798273Y-104646320D01*
X140563241Y-104803363D01*
X140363363Y-105003241D01*
X140206320Y-105238273D01*
X140098147Y-105499426D01*
X140043000Y-105776665D01*
X139103000Y-105776665D01*
X139047853Y-105499426D01*
X138939680Y-105238273D01*
X138782637Y-105003241D01*
X138582759Y-104803363D01*
X138347727Y-104646320D01*
X138086574Y-104538147D01*
X137809335Y-104483000D01*
X137526665Y-104483000D01*
X137249426Y-104538147D01*
X136988273Y-104646320D01*
X136753241Y-104803363D01*
X136553363Y-105003241D01*
X136396320Y-105238273D01*
X136288147Y-105499426D01*
X136233000Y-105776665D01*
X121557570Y-105776665D01*
X120742378Y-104212655D01*
X120323781Y-103240408D01*
X161671000Y-103240408D01*
X161671000Y-103515592D01*
X161724686Y-103785490D01*
X161829995Y-104039727D01*
X161982880Y-104268535D01*
X162177465Y-104463120D01*
X162406273Y-104616005D01*
X162483515Y-104648000D01*
X162406273Y-104679995D01*
X162177465Y-104832880D01*
X161982880Y-105027465D01*
X161829995Y-105256273D01*
X161724686Y-105510510D01*
X161671000Y-105780408D01*
X161671000Y-106055592D01*
X161724686Y-106325490D01*
X161829995Y-106579727D01*
X161982880Y-106808535D01*
X162177465Y-107003120D01*
X162406273Y-107156005D01*
X162660510Y-107261314D01*
X162930408Y-107315000D01*
X163205592Y-107315000D01*
X163475490Y-107261314D01*
X163729727Y-107156005D01*
X163958535Y-107003120D01*
X164153120Y-106808535D01*
X164306005Y-106579727D01*
X164411314Y-106325490D01*
X164465000Y-106055592D01*
X164465000Y-105780408D01*
X164411314Y-105510510D01*
X164306005Y-105256273D01*
X164153120Y-105027465D01*
X163958535Y-104832880D01*
X163729727Y-104679995D01*
X163652485Y-104648000D01*
X163729727Y-104616005D01*
X163958535Y-104463120D01*
X164153120Y-104268535D01*
X164306005Y-104039727D01*
X164411314Y-103785490D01*
X164465000Y-103515592D01*
X164465000Y-103240408D01*
X166751000Y-103240408D01*
X166751000Y-103515592D01*
X166804686Y-103785490D01*
X166909995Y-104039727D01*
X167062880Y-104268535D01*
X167257465Y-104463120D01*
X167486273Y-104616005D01*
X167563515Y-104648000D01*
X167486273Y-104679995D01*
X167257465Y-104832880D01*
X167062880Y-105027465D01*
X166909995Y-105256273D01*
X166804686Y-105510510D01*
X166751000Y-105780408D01*
X166751000Y-106055592D01*
X166804686Y-106325490D01*
X166909995Y-106579727D01*
X167062880Y-106808535D01*
X167257465Y-107003120D01*
X167486273Y-107156005D01*
X167740510Y-107261314D01*
X168010408Y-107315000D01*
X168285592Y-107315000D01*
X168555490Y-107261314D01*
X168809727Y-107156005D01*
X169038535Y-107003120D01*
X169233120Y-106808535D01*
X169386005Y-106579727D01*
X169491314Y-106325490D01*
X169545000Y-106055592D01*
X169545000Y-105780408D01*
X169491314Y-105510510D01*
X169386005Y-105256273D01*
X169233120Y-105027465D01*
X169038535Y-104832880D01*
X168809727Y-104679995D01*
X168732485Y-104648000D01*
X168809727Y-104616005D01*
X169038535Y-104463120D01*
X169233120Y-104268535D01*
X169386005Y-104039727D01*
X169491314Y-103785490D01*
X169545000Y-103515592D01*
X169545000Y-103240408D01*
X169491314Y-102970510D01*
X169386005Y-102716273D01*
X169233120Y-102487465D01*
X169038535Y-102292880D01*
X168809727Y-102139995D01*
X168555490Y-102034686D01*
X168285592Y-101981000D01*
X168010408Y-101981000D01*
X167740510Y-102034686D01*
X167486273Y-102139995D01*
X167257465Y-102292880D01*
X167062880Y-102487465D01*
X166909995Y-102716273D01*
X166804686Y-102970510D01*
X166751000Y-103240408D01*
X164465000Y-103240408D01*
X164411314Y-102970510D01*
X164306005Y-102716273D01*
X164153120Y-102487465D01*
X163958535Y-102292880D01*
X163729727Y-102139995D01*
X163475490Y-102034686D01*
X163205592Y-101981000D01*
X162930408Y-101981000D01*
X162660510Y-102034686D01*
X162406273Y-102139995D01*
X162177465Y-102292880D01*
X161982880Y-102487465D01*
X161829995Y-102716273D01*
X161724686Y-102970510D01*
X161671000Y-103240408D01*
X120323781Y-103240408D01*
X119907100Y-102272614D01*
X119362647Y-100696665D01*
X120993000Y-100696665D01*
X120993000Y-100979335D01*
X121048147Y-101256574D01*
X121156320Y-101517727D01*
X121313363Y-101752759D01*
X121513241Y-101952637D01*
X121748273Y-102109680D01*
X122009426Y-102217853D01*
X122286665Y-102273000D01*
X122569335Y-102273000D01*
X122846574Y-102217853D01*
X123107727Y-102109680D01*
X123342759Y-101952637D01*
X123542637Y-101752759D01*
X123699680Y-101517727D01*
X123807853Y-101256574D01*
X123863000Y-100979335D01*
X123863000Y-100696665D01*
X131153000Y-100696665D01*
X131153000Y-100979335D01*
X131208147Y-101256574D01*
X131316320Y-101517727D01*
X131473363Y-101752759D01*
X131673241Y-101952637D01*
X131908273Y-102109680D01*
X132169426Y-102217853D01*
X132446665Y-102273000D01*
X132729335Y-102273000D01*
X133006574Y-102217853D01*
X133267727Y-102109680D01*
X133502759Y-101952637D01*
X133702637Y-101752759D01*
X133859680Y-101517727D01*
X133967853Y-101256574D01*
X134023000Y-100979335D01*
X134023000Y-100696665D01*
X133967853Y-100419426D01*
X133859680Y-100158273D01*
X133702637Y-99923241D01*
X133502759Y-99723363D01*
X133267727Y-99566320D01*
X133006574Y-99458147D01*
X132729335Y-99403000D01*
X132446665Y-99403000D01*
X132169426Y-99458147D01*
X131908273Y-99566320D01*
X131673241Y-99723363D01*
X131473363Y-99923241D01*
X131316320Y-100158273D01*
X131208147Y-100419426D01*
X131153000Y-100696665D01*
X123863000Y-100696665D01*
X123807853Y-100419426D01*
X123699680Y-100158273D01*
X123542637Y-99923241D01*
X123342759Y-99723363D01*
X123107727Y-99566320D01*
X122846574Y-99458147D01*
X122569335Y-99403000D01*
X122286665Y-99403000D01*
X122009426Y-99458147D01*
X121748273Y-99566320D01*
X121513241Y-99723363D01*
X121313363Y-99923241D01*
X121156320Y-100158273D01*
X121048147Y-100419426D01*
X120993000Y-100696665D01*
X119362647Y-100696665D01*
X119217380Y-100276183D01*
X118676985Y-98234266D01*
X118425075Y-96886665D01*
X120993000Y-96886665D01*
X120993000Y-97169335D01*
X121048147Y-97446574D01*
X121156320Y-97707727D01*
X121313363Y-97942759D01*
X121513241Y-98142637D01*
X121748273Y-98299680D01*
X122009426Y-98407853D01*
X122286665Y-98463000D01*
X122569335Y-98463000D01*
X122846574Y-98407853D01*
X123107727Y-98299680D01*
X123342759Y-98142637D01*
X123542637Y-97942759D01*
X123699680Y-97707727D01*
X123807853Y-97446574D01*
X123863000Y-97169335D01*
X123863000Y-96886665D01*
X131153000Y-96886665D01*
X131153000Y-97169335D01*
X131208147Y-97446574D01*
X131316320Y-97707727D01*
X131473363Y-97942759D01*
X131673241Y-98142637D01*
X131908273Y-98299680D01*
X132169426Y-98407853D01*
X132446665Y-98463000D01*
X132729335Y-98463000D01*
X133006574Y-98407853D01*
X133267727Y-98299680D01*
X133502759Y-98142637D01*
X133570875Y-98074521D01*
X137938979Y-98074521D01*
X137938979Y-98521479D01*
X138026176Y-98959849D01*
X138197220Y-99372785D01*
X138445536Y-99744417D01*
X138761583Y-100060464D01*
X139133215Y-100308780D01*
X139546151Y-100479824D01*
X139984521Y-100567021D01*
X140431479Y-100567021D01*
X140869849Y-100479824D01*
X141282785Y-100308780D01*
X141654417Y-100060464D01*
X141970464Y-99744417D01*
X142218780Y-99372785D01*
X142250787Y-99295512D01*
X143791386Y-99295512D01*
X143791386Y-99840488D01*
X143897706Y-100374991D01*
X144106259Y-100878483D01*
X144409031Y-101331613D01*
X144794387Y-101716969D01*
X145247517Y-102019741D01*
X145751009Y-102228294D01*
X146285512Y-102334614D01*
X146830488Y-102334614D01*
X147364991Y-102228294D01*
X147868483Y-102019741D01*
X148321613Y-101716969D01*
X148706969Y-101331613D01*
X149009741Y-100878483D01*
X149085052Y-100696665D01*
X159093000Y-100696665D01*
X159093000Y-100979335D01*
X159148147Y-101256574D01*
X159256320Y-101517727D01*
X159413363Y-101752759D01*
X159613241Y-101952637D01*
X159848273Y-102109680D01*
X160109426Y-102217853D01*
X160386665Y-102273000D01*
X160669335Y-102273000D01*
X160946574Y-102217853D01*
X161207727Y-102109680D01*
X161442759Y-101952637D01*
X161642637Y-101752759D01*
X161799680Y-101517727D01*
X161907853Y-101256574D01*
X161963000Y-100979335D01*
X161963000Y-100696665D01*
X169253000Y-100696665D01*
X169253000Y-100979335D01*
X169308147Y-101256574D01*
X169416320Y-101517727D01*
X169573363Y-101752759D01*
X169773241Y-101952637D01*
X170008273Y-102109680D01*
X170269426Y-102217853D01*
X170546665Y-102273000D01*
X170829335Y-102273000D01*
X171106574Y-102217853D01*
X171367727Y-102109680D01*
X171602759Y-101952637D01*
X171802637Y-101752759D01*
X171959680Y-101517727D01*
X172067853Y-101256574D01*
X172123000Y-100979335D01*
X172123000Y-100696665D01*
X172067853Y-100419426D01*
X171959680Y-100158273D01*
X171802637Y-99923241D01*
X171602759Y-99723363D01*
X171367727Y-99566320D01*
X171106574Y-99458147D01*
X170829335Y-99403000D01*
X170546665Y-99403000D01*
X170269426Y-99458147D01*
X170008273Y-99566320D01*
X169773241Y-99723363D01*
X169573363Y-99923241D01*
X169416320Y-100158273D01*
X169308147Y-100419426D01*
X169253000Y-100696665D01*
X161963000Y-100696665D01*
X161907853Y-100419426D01*
X161799680Y-100158273D01*
X161642637Y-99923241D01*
X161442759Y-99723363D01*
X161207727Y-99566320D01*
X160946574Y-99458147D01*
X160669335Y-99403000D01*
X160386665Y-99403000D01*
X160109426Y-99458147D01*
X159848273Y-99566320D01*
X159613241Y-99723363D01*
X159413363Y-99923241D01*
X159256320Y-100158273D01*
X159148147Y-100419426D01*
X159093000Y-100696665D01*
X149085052Y-100696665D01*
X149218294Y-100374991D01*
X149324614Y-99840488D01*
X149324614Y-99295512D01*
X149218294Y-98761009D01*
X149009741Y-98257517D01*
X148706969Y-97804387D01*
X148321613Y-97419031D01*
X147868483Y-97116259D01*
X147364991Y-96907706D01*
X147259212Y-96886665D01*
X159093000Y-96886665D01*
X159093000Y-97169335D01*
X159148147Y-97446574D01*
X159256320Y-97707727D01*
X159413363Y-97942759D01*
X159613241Y-98142637D01*
X159848273Y-98299680D01*
X160109426Y-98407853D01*
X160386665Y-98463000D01*
X160669335Y-98463000D01*
X160946574Y-98407853D01*
X161207727Y-98299680D01*
X161442759Y-98142637D01*
X161642637Y-97942759D01*
X161799680Y-97707727D01*
X161907853Y-97446574D01*
X161963000Y-97169335D01*
X161963000Y-96886665D01*
X169253000Y-96886665D01*
X169253000Y-97169335D01*
X169308147Y-97446574D01*
X169416320Y-97707727D01*
X169573363Y-97942759D01*
X169773241Y-98142637D01*
X170008273Y-98299680D01*
X170269426Y-98407853D01*
X170546665Y-98463000D01*
X170829335Y-98463000D01*
X171106574Y-98407853D01*
X171367727Y-98299680D01*
X171602759Y-98142637D01*
X171802637Y-97942759D01*
X171959680Y-97707727D01*
X172067853Y-97446574D01*
X172123000Y-97169335D01*
X172123000Y-96886665D01*
X172067853Y-96609426D01*
X171959680Y-96348273D01*
X171802637Y-96113241D01*
X171602759Y-95913363D01*
X171367727Y-95756320D01*
X171106574Y-95648147D01*
X170829335Y-95593000D01*
X170546665Y-95593000D01*
X170269426Y-95648147D01*
X170008273Y-95756320D01*
X169773241Y-95913363D01*
X169573363Y-96113241D01*
X169416320Y-96348273D01*
X169308147Y-96609426D01*
X169253000Y-96886665D01*
X161963000Y-96886665D01*
X161907853Y-96609426D01*
X161799680Y-96348273D01*
X161642637Y-96113241D01*
X161442759Y-95913363D01*
X161207727Y-95756320D01*
X160946574Y-95648147D01*
X160669335Y-95593000D01*
X160386665Y-95593000D01*
X160109426Y-95648147D01*
X159848273Y-95756320D01*
X159613241Y-95913363D01*
X159413363Y-96113241D01*
X159256320Y-96348273D01*
X159148147Y-96609426D01*
X159093000Y-96886665D01*
X147259212Y-96886665D01*
X146830488Y-96801386D01*
X146285512Y-96801386D01*
X145751009Y-96907706D01*
X145247517Y-97116259D01*
X144794387Y-97419031D01*
X144409031Y-97804387D01*
X144106259Y-98257517D01*
X143897706Y-98761009D01*
X143791386Y-99295512D01*
X142250787Y-99295512D01*
X142389824Y-98959849D01*
X142477021Y-98521479D01*
X142477021Y-98074521D01*
X142389824Y-97636151D01*
X142218780Y-97223215D01*
X141970464Y-96851583D01*
X141654417Y-96535536D01*
X141282785Y-96287220D01*
X140869849Y-96116176D01*
X140431479Y-96028979D01*
X139984521Y-96028979D01*
X139546151Y-96116176D01*
X139133215Y-96287220D01*
X138761583Y-96535536D01*
X138445536Y-96851583D01*
X138197220Y-97223215D01*
X138026176Y-97636151D01*
X137938979Y-98074521D01*
X133570875Y-98074521D01*
X133702637Y-97942759D01*
X133859680Y-97707727D01*
X133967853Y-97446574D01*
X134023000Y-97169335D01*
X134023000Y-96886665D01*
X133967853Y-96609426D01*
X133859680Y-96348273D01*
X133702637Y-96113241D01*
X133502759Y-95913363D01*
X133267727Y-95756320D01*
X133006574Y-95648147D01*
X132729335Y-95593000D01*
X132446665Y-95593000D01*
X132169426Y-95648147D01*
X131908273Y-95756320D01*
X131673241Y-95913363D01*
X131473363Y-96113241D01*
X131316320Y-96348273D01*
X131208147Y-96609426D01*
X131153000Y-96886665D01*
X123863000Y-96886665D01*
X123807853Y-96609426D01*
X123699680Y-96348273D01*
X123542637Y-96113241D01*
X123342759Y-95913363D01*
X123107727Y-95756320D01*
X122846574Y-95648147D01*
X122569335Y-95593000D01*
X122286665Y-95593000D01*
X122009426Y-95648147D01*
X121748273Y-95756320D01*
X121513241Y-95913363D01*
X121313363Y-96113241D01*
X121156320Y-96348273D01*
X121048147Y-96609426D01*
X120993000Y-96886665D01*
X118425075Y-96886665D01*
X118288867Y-96158016D01*
X118055144Y-94058772D01*
X117977095Y-91948000D01*
X118029142Y-90540408D01*
X123571000Y-90540408D01*
X123571000Y-90815592D01*
X123624686Y-91085490D01*
X123729995Y-91339727D01*
X123882880Y-91568535D01*
X124077465Y-91763120D01*
X124306273Y-91916005D01*
X124383515Y-91948000D01*
X124306273Y-91979995D01*
X124077465Y-92132880D01*
X123882880Y-92327465D01*
X123729995Y-92556273D01*
X123624686Y-92810510D01*
X123571000Y-93080408D01*
X123571000Y-93355592D01*
X123624686Y-93625490D01*
X123729995Y-93879727D01*
X123882880Y-94108535D01*
X124077465Y-94303120D01*
X124306273Y-94456005D01*
X124560510Y-94561314D01*
X124830408Y-94615000D01*
X125105592Y-94615000D01*
X125375490Y-94561314D01*
X125629727Y-94456005D01*
X125858535Y-94303120D01*
X126053120Y-94108535D01*
X126206005Y-93879727D01*
X126311314Y-93625490D01*
X126365000Y-93355592D01*
X126365000Y-93080408D01*
X126311314Y-92810510D01*
X126206005Y-92556273D01*
X126053120Y-92327465D01*
X125858535Y-92132880D01*
X125629727Y-91979995D01*
X125552485Y-91948000D01*
X125629727Y-91916005D01*
X125858535Y-91763120D01*
X126053120Y-91568535D01*
X126206005Y-91339727D01*
X126311314Y-91085490D01*
X126365000Y-90815592D01*
X126365000Y-90540408D01*
X128651000Y-90540408D01*
X128651000Y-90815592D01*
X128704686Y-91085490D01*
X128809995Y-91339727D01*
X128962880Y-91568535D01*
X129157465Y-91763120D01*
X129386273Y-91916005D01*
X129463515Y-91948000D01*
X129386273Y-91979995D01*
X129157465Y-92132880D01*
X128962880Y-92327465D01*
X128809995Y-92556273D01*
X128704686Y-92810510D01*
X128651000Y-93080408D01*
X128651000Y-93355592D01*
X128704686Y-93625490D01*
X128809995Y-93879727D01*
X128962880Y-94108535D01*
X129157465Y-94303120D01*
X129386273Y-94456005D01*
X129640510Y-94561314D01*
X129910408Y-94615000D01*
X130185592Y-94615000D01*
X130455490Y-94561314D01*
X130709727Y-94456005D01*
X130938535Y-94303120D01*
X131133120Y-94108535D01*
X131286005Y-93879727D01*
X131391314Y-93625490D01*
X131445000Y-93355592D01*
X131445000Y-93080408D01*
X131391314Y-92810510D01*
X131286005Y-92556273D01*
X131133120Y-92327465D01*
X130938535Y-92132880D01*
X130709727Y-91979995D01*
X130632485Y-91948000D01*
X130709727Y-91916005D01*
X130938535Y-91763120D01*
X131026143Y-91675512D01*
X136171386Y-91675512D01*
X136171386Y-92220488D01*
X136277706Y-92754991D01*
X136486259Y-93258483D01*
X136789031Y-93711613D01*
X137174387Y-94096969D01*
X137627517Y-94399741D01*
X138131009Y-94608294D01*
X138665512Y-94714614D01*
X139210488Y-94714614D01*
X139744991Y-94608294D01*
X140248483Y-94399741D01*
X140701613Y-94096969D01*
X141086969Y-93711613D01*
X141389741Y-93258483D01*
X141598294Y-92754991D01*
X141704614Y-92220488D01*
X141704614Y-91675512D01*
X151411386Y-91675512D01*
X151411386Y-92220488D01*
X151517706Y-92754991D01*
X151726259Y-93258483D01*
X152029031Y-93711613D01*
X152414387Y-94096969D01*
X152867517Y-94399741D01*
X153371009Y-94608294D01*
X153905512Y-94714614D01*
X154450488Y-94714614D01*
X154984991Y-94608294D01*
X155488483Y-94399741D01*
X155941613Y-94096969D01*
X156326969Y-93711613D01*
X156629741Y-93258483D01*
X156838294Y-92754991D01*
X156944614Y-92220488D01*
X156944614Y-91675512D01*
X156838294Y-91141009D01*
X156629741Y-90637517D01*
X156564855Y-90540408D01*
X161671000Y-90540408D01*
X161671000Y-90815592D01*
X161724686Y-91085490D01*
X161829995Y-91339727D01*
X161982880Y-91568535D01*
X162177465Y-91763120D01*
X162406273Y-91916005D01*
X162483515Y-91948000D01*
X162406273Y-91979995D01*
X162177465Y-92132880D01*
X161982880Y-92327465D01*
X161829995Y-92556273D01*
X161724686Y-92810510D01*
X161671000Y-93080408D01*
X161671000Y-93355592D01*
X161724686Y-93625490D01*
X161829995Y-93879727D01*
X161982880Y-94108535D01*
X162177465Y-94303120D01*
X162406273Y-94456005D01*
X162660510Y-94561314D01*
X162930408Y-94615000D01*
X163205592Y-94615000D01*
X163475490Y-94561314D01*
X163729727Y-94456005D01*
X163958535Y-94303120D01*
X164153120Y-94108535D01*
X164306005Y-93879727D01*
X164411314Y-93625490D01*
X164465000Y-93355592D01*
X164465000Y-93080408D01*
X164411314Y-92810510D01*
X164306005Y-92556273D01*
X164153120Y-92327465D01*
X163958535Y-92132880D01*
X163729727Y-91979995D01*
X163652485Y-91948000D01*
X163729727Y-91916005D01*
X163958535Y-91763120D01*
X164153120Y-91568535D01*
X164306005Y-91339727D01*
X164411314Y-91085490D01*
X164465000Y-90815592D01*
X164465000Y-90540408D01*
X166751000Y-90540408D01*
X166751000Y-90815592D01*
X166804686Y-91085490D01*
X166909995Y-91339727D01*
X167062880Y-91568535D01*
X167257465Y-91763120D01*
X167486273Y-91916005D01*
X167563515Y-91948000D01*
X167486273Y-91979995D01*
X167257465Y-92132880D01*
X167062880Y-92327465D01*
X166909995Y-92556273D01*
X166804686Y-92810510D01*
X166751000Y-93080408D01*
X166751000Y-93355592D01*
X166804686Y-93625490D01*
X166909995Y-93879727D01*
X167062880Y-94108535D01*
X167257465Y-94303120D01*
X167486273Y-94456005D01*
X167740510Y-94561314D01*
X168010408Y-94615000D01*
X168285592Y-94615000D01*
X168555490Y-94561314D01*
X168809727Y-94456005D01*
X169038535Y-94303120D01*
X169233120Y-94108535D01*
X169386005Y-93879727D01*
X169491314Y-93625490D01*
X169545000Y-93355592D01*
X169545000Y-93080408D01*
X169491314Y-92810510D01*
X169386005Y-92556273D01*
X169233120Y-92327465D01*
X169038535Y-92132880D01*
X168809727Y-91979995D01*
X168732485Y-91948000D01*
X168809727Y-91916005D01*
X169038535Y-91763120D01*
X169233120Y-91568535D01*
X169386005Y-91339727D01*
X169491314Y-91085490D01*
X169545000Y-90815592D01*
X169545000Y-90540408D01*
X169491314Y-90270510D01*
X169386005Y-90016273D01*
X169233120Y-89787465D01*
X169038535Y-89592880D01*
X168809727Y-89439995D01*
X168555490Y-89334686D01*
X168285592Y-89281000D01*
X168010408Y-89281000D01*
X167740510Y-89334686D01*
X167486273Y-89439995D01*
X167257465Y-89592880D01*
X167062880Y-89787465D01*
X166909995Y-90016273D01*
X166804686Y-90270510D01*
X166751000Y-90540408D01*
X164465000Y-90540408D01*
X164411314Y-90270510D01*
X164306005Y-90016273D01*
X164153120Y-89787465D01*
X163958535Y-89592880D01*
X163729727Y-89439995D01*
X163475490Y-89334686D01*
X163205592Y-89281000D01*
X162930408Y-89281000D01*
X162660510Y-89334686D01*
X162406273Y-89439995D01*
X162177465Y-89592880D01*
X161982880Y-89787465D01*
X161829995Y-90016273D01*
X161724686Y-90270510D01*
X161671000Y-90540408D01*
X156564855Y-90540408D01*
X156326969Y-90184387D01*
X155941613Y-89799031D01*
X155488483Y-89496259D01*
X154984991Y-89287706D01*
X154450488Y-89181386D01*
X153905512Y-89181386D01*
X153371009Y-89287706D01*
X152867517Y-89496259D01*
X152414387Y-89799031D01*
X152029031Y-90184387D01*
X151726259Y-90637517D01*
X151517706Y-91141009D01*
X151411386Y-91675512D01*
X141704614Y-91675512D01*
X141598294Y-91141009D01*
X141389741Y-90637517D01*
X141086969Y-90184387D01*
X140701613Y-89799031D01*
X140248483Y-89496259D01*
X139744991Y-89287706D01*
X139210488Y-89181386D01*
X138665512Y-89181386D01*
X138131009Y-89287706D01*
X137627517Y-89496259D01*
X137174387Y-89799031D01*
X136789031Y-90184387D01*
X136486259Y-90637517D01*
X136277706Y-91141009D01*
X136171386Y-91675512D01*
X131026143Y-91675512D01*
X131133120Y-91568535D01*
X131286005Y-91339727D01*
X131391314Y-91085490D01*
X131445000Y-90815592D01*
X131445000Y-90540408D01*
X131391314Y-90270510D01*
X131286005Y-90016273D01*
X131133120Y-89787465D01*
X130938535Y-89592880D01*
X130709727Y-89439995D01*
X130455490Y-89334686D01*
X130185592Y-89281000D01*
X129910408Y-89281000D01*
X129640510Y-89334686D01*
X129386273Y-89439995D01*
X129157465Y-89592880D01*
X128962880Y-89787465D01*
X128809995Y-90016273D01*
X128704686Y-90270510D01*
X128651000Y-90540408D01*
X126365000Y-90540408D01*
X126311314Y-90270510D01*
X126206005Y-90016273D01*
X126053120Y-89787465D01*
X125858535Y-89592880D01*
X125629727Y-89439995D01*
X125375490Y-89334686D01*
X125105592Y-89281000D01*
X124830408Y-89281000D01*
X124560510Y-89334686D01*
X124306273Y-89439995D01*
X124077465Y-89592880D01*
X123882880Y-89787465D01*
X123729995Y-90016273D01*
X123624686Y-90270510D01*
X123571000Y-90540408D01*
X118029142Y-90540408D01*
X118055144Y-89837228D01*
X118288867Y-87737984D01*
X118477915Y-86726665D01*
X120993000Y-86726665D01*
X120993000Y-87009335D01*
X121048147Y-87286574D01*
X121156320Y-87547727D01*
X121313363Y-87782759D01*
X121513241Y-87982637D01*
X121748273Y-88139680D01*
X122009426Y-88247853D01*
X122286665Y-88303000D01*
X122569335Y-88303000D01*
X122846574Y-88247853D01*
X123107727Y-88139680D01*
X123342759Y-87982637D01*
X123542637Y-87782759D01*
X123699680Y-87547727D01*
X123807853Y-87286574D01*
X123863000Y-87009335D01*
X123863000Y-86726665D01*
X131153000Y-86726665D01*
X131153000Y-87009335D01*
X131208147Y-87286574D01*
X131316320Y-87547727D01*
X131473363Y-87782759D01*
X131673241Y-87982637D01*
X131908273Y-88139680D01*
X132169426Y-88247853D01*
X132446665Y-88303000D01*
X132729335Y-88303000D01*
X133006574Y-88247853D01*
X133267727Y-88139680D01*
X133502759Y-87982637D01*
X133702637Y-87782759D01*
X133859680Y-87547727D01*
X133967853Y-87286574D01*
X134023000Y-87009335D01*
X134023000Y-86726665D01*
X133967853Y-86449426D01*
X133859680Y-86188273D01*
X133702637Y-85953241D01*
X133502759Y-85753363D01*
X133267727Y-85596320D01*
X133006574Y-85488147D01*
X132729335Y-85433000D01*
X132446665Y-85433000D01*
X132169426Y-85488147D01*
X131908273Y-85596320D01*
X131673241Y-85753363D01*
X131473363Y-85953241D01*
X131316320Y-86188273D01*
X131208147Y-86449426D01*
X131153000Y-86726665D01*
X123863000Y-86726665D01*
X123807853Y-86449426D01*
X123699680Y-86188273D01*
X123542637Y-85953241D01*
X123342759Y-85753363D01*
X123107727Y-85596320D01*
X122846574Y-85488147D01*
X122569335Y-85433000D01*
X122286665Y-85433000D01*
X122009426Y-85488147D01*
X121748273Y-85596320D01*
X121513241Y-85753363D01*
X121313363Y-85953241D01*
X121156320Y-86188273D01*
X121048147Y-86449426D01*
X120993000Y-86726665D01*
X118477915Y-86726665D01*
X118676985Y-85661734D01*
X119217380Y-83619817D01*
X119460302Y-82916665D01*
X120993000Y-82916665D01*
X120993000Y-83199335D01*
X121048147Y-83476574D01*
X121156320Y-83737727D01*
X121313363Y-83972759D01*
X121513241Y-84172637D01*
X121748273Y-84329680D01*
X122009426Y-84437853D01*
X122286665Y-84493000D01*
X122569335Y-84493000D01*
X122846574Y-84437853D01*
X123107727Y-84329680D01*
X123342759Y-84172637D01*
X123542637Y-83972759D01*
X123699680Y-83737727D01*
X123807853Y-83476574D01*
X123863000Y-83199335D01*
X123863000Y-82916665D01*
X131153000Y-82916665D01*
X131153000Y-83199335D01*
X131208147Y-83476574D01*
X131316320Y-83737727D01*
X131473363Y-83972759D01*
X131673241Y-84172637D01*
X131908273Y-84329680D01*
X132169426Y-84437853D01*
X132446665Y-84493000D01*
X132729335Y-84493000D01*
X133006574Y-84437853D01*
X133267727Y-84329680D01*
X133502759Y-84172637D01*
X133619884Y-84055512D01*
X143791386Y-84055512D01*
X143791386Y-84600488D01*
X143897706Y-85134991D01*
X144106259Y-85638483D01*
X144409031Y-86091613D01*
X144794387Y-86476969D01*
X145247517Y-86779741D01*
X145751009Y-86988294D01*
X146285512Y-87094614D01*
X146830488Y-87094614D01*
X147364991Y-86988294D01*
X147868483Y-86779741D01*
X148321613Y-86476969D01*
X148706969Y-86091613D01*
X149009741Y-85638483D01*
X149119077Y-85374521D01*
X150638979Y-85374521D01*
X150638979Y-85821479D01*
X150726176Y-86259849D01*
X150897220Y-86672785D01*
X151145536Y-87044417D01*
X151461583Y-87360464D01*
X151833215Y-87608780D01*
X152246151Y-87779824D01*
X152684521Y-87867021D01*
X153131479Y-87867021D01*
X153569849Y-87779824D01*
X153982785Y-87608780D01*
X154354417Y-87360464D01*
X154670464Y-87044417D01*
X154882778Y-86726665D01*
X159093000Y-86726665D01*
X159093000Y-87009335D01*
X159148147Y-87286574D01*
X159256320Y-87547727D01*
X159413363Y-87782759D01*
X159613241Y-87982637D01*
X159848273Y-88139680D01*
X160109426Y-88247853D01*
X160386665Y-88303000D01*
X160669335Y-88303000D01*
X160946574Y-88247853D01*
X161207727Y-88139680D01*
X161442759Y-87982637D01*
X161642637Y-87782759D01*
X161799680Y-87547727D01*
X161907853Y-87286574D01*
X161963000Y-87009335D01*
X161963000Y-86726665D01*
X169253000Y-86726665D01*
X169253000Y-87009335D01*
X169308147Y-87286574D01*
X169416320Y-87547727D01*
X169573363Y-87782759D01*
X169773241Y-87982637D01*
X170008273Y-88139680D01*
X170269426Y-88247853D01*
X170546665Y-88303000D01*
X170829335Y-88303000D01*
X171106574Y-88247853D01*
X171367727Y-88139680D01*
X171602759Y-87982637D01*
X171802637Y-87782759D01*
X171959680Y-87547727D01*
X172067853Y-87286574D01*
X172123000Y-87009335D01*
X172123000Y-86726665D01*
X172067853Y-86449426D01*
X171959680Y-86188273D01*
X171802637Y-85953241D01*
X171602759Y-85753363D01*
X171367727Y-85596320D01*
X171106574Y-85488147D01*
X170829335Y-85433000D01*
X170546665Y-85433000D01*
X170269426Y-85488147D01*
X170008273Y-85596320D01*
X169773241Y-85753363D01*
X169573363Y-85953241D01*
X169416320Y-86188273D01*
X169308147Y-86449426D01*
X169253000Y-86726665D01*
X161963000Y-86726665D01*
X161907853Y-86449426D01*
X161799680Y-86188273D01*
X161642637Y-85953241D01*
X161442759Y-85753363D01*
X161207727Y-85596320D01*
X160946574Y-85488147D01*
X160669335Y-85433000D01*
X160386665Y-85433000D01*
X160109426Y-85488147D01*
X159848273Y-85596320D01*
X159613241Y-85753363D01*
X159413363Y-85953241D01*
X159256320Y-86188273D01*
X159148147Y-86449426D01*
X159093000Y-86726665D01*
X154882778Y-86726665D01*
X154918780Y-86672785D01*
X155089824Y-86259849D01*
X155177021Y-85821479D01*
X155177021Y-85374521D01*
X155089824Y-84936151D01*
X154918780Y-84523215D01*
X154670464Y-84151583D01*
X154354417Y-83835536D01*
X153982785Y-83587220D01*
X153569849Y-83416176D01*
X153131479Y-83328979D01*
X152684521Y-83328979D01*
X152246151Y-83416176D01*
X151833215Y-83587220D01*
X151461583Y-83835536D01*
X151145536Y-84151583D01*
X150897220Y-84523215D01*
X150726176Y-84936151D01*
X150638979Y-85374521D01*
X149119077Y-85374521D01*
X149218294Y-85134991D01*
X149324614Y-84600488D01*
X149324614Y-84055512D01*
X149218294Y-83521009D01*
X149009741Y-83017517D01*
X148942354Y-82916665D01*
X159093000Y-82916665D01*
X159093000Y-83199335D01*
X159148147Y-83476574D01*
X159256320Y-83737727D01*
X159413363Y-83972759D01*
X159613241Y-84172637D01*
X159848273Y-84329680D01*
X160109426Y-84437853D01*
X160386665Y-84493000D01*
X160669335Y-84493000D01*
X160946574Y-84437853D01*
X161207727Y-84329680D01*
X161442759Y-84172637D01*
X161642637Y-83972759D01*
X161799680Y-83737727D01*
X161907853Y-83476574D01*
X161963000Y-83199335D01*
X161963000Y-82916665D01*
X169253000Y-82916665D01*
X169253000Y-83199335D01*
X169308147Y-83476574D01*
X169416320Y-83737727D01*
X169573363Y-83972759D01*
X169773241Y-84172637D01*
X170008273Y-84329680D01*
X170269426Y-84437853D01*
X170546665Y-84493000D01*
X170829335Y-84493000D01*
X171106574Y-84437853D01*
X171367727Y-84329680D01*
X171602759Y-84172637D01*
X171802637Y-83972759D01*
X171959680Y-83737727D01*
X172067853Y-83476574D01*
X172123000Y-83199335D01*
X172123000Y-82916665D01*
X172067853Y-82639426D01*
X171959680Y-82378273D01*
X171802637Y-82143241D01*
X171602759Y-81943363D01*
X171367727Y-81786320D01*
X171106574Y-81678147D01*
X170829335Y-81623000D01*
X170546665Y-81623000D01*
X170269426Y-81678147D01*
X170008273Y-81786320D01*
X169773241Y-81943363D01*
X169573363Y-82143241D01*
X169416320Y-82378273D01*
X169308147Y-82639426D01*
X169253000Y-82916665D01*
X161963000Y-82916665D01*
X161907853Y-82639426D01*
X161799680Y-82378273D01*
X161642637Y-82143241D01*
X161442759Y-81943363D01*
X161207727Y-81786320D01*
X160946574Y-81678147D01*
X160669335Y-81623000D01*
X160386665Y-81623000D01*
X160109426Y-81678147D01*
X159848273Y-81786320D01*
X159613241Y-81943363D01*
X159413363Y-82143241D01*
X159256320Y-82378273D01*
X159148147Y-82639426D01*
X159093000Y-82916665D01*
X148942354Y-82916665D01*
X148706969Y-82564387D01*
X148321613Y-82179031D01*
X147868483Y-81876259D01*
X147364991Y-81667706D01*
X146830488Y-81561386D01*
X146285512Y-81561386D01*
X145751009Y-81667706D01*
X145247517Y-81876259D01*
X144794387Y-82179031D01*
X144409031Y-82564387D01*
X144106259Y-83017517D01*
X143897706Y-83521009D01*
X143791386Y-84055512D01*
X133619884Y-84055512D01*
X133702637Y-83972759D01*
X133859680Y-83737727D01*
X133967853Y-83476574D01*
X134023000Y-83199335D01*
X134023000Y-82916665D01*
X133967853Y-82639426D01*
X133859680Y-82378273D01*
X133702637Y-82143241D01*
X133502759Y-81943363D01*
X133267727Y-81786320D01*
X133006574Y-81678147D01*
X132729335Y-81623000D01*
X132446665Y-81623000D01*
X132169426Y-81678147D01*
X131908273Y-81786320D01*
X131673241Y-81943363D01*
X131473363Y-82143241D01*
X131316320Y-82378273D01*
X131208147Y-82639426D01*
X131153000Y-82916665D01*
X123863000Y-82916665D01*
X123807853Y-82639426D01*
X123699680Y-82378273D01*
X123542637Y-82143241D01*
X123342759Y-81943363D01*
X123107727Y-81786320D01*
X122846574Y-81678147D01*
X122569335Y-81623000D01*
X122286665Y-81623000D01*
X122009426Y-81678147D01*
X121748273Y-81786320D01*
X121513241Y-81943363D01*
X121313363Y-82143241D01*
X121156320Y-82378273D01*
X121048147Y-82639426D01*
X120993000Y-82916665D01*
X119460302Y-82916665D01*
X119907100Y-81623386D01*
X120742378Y-79683345D01*
X121702951Y-77840408D01*
X123571000Y-77840408D01*
X123571000Y-78115592D01*
X123624686Y-78385490D01*
X123729995Y-78639727D01*
X123882880Y-78868535D01*
X124077465Y-79063120D01*
X124306273Y-79216005D01*
X124383515Y-79248000D01*
X124306273Y-79279995D01*
X124077465Y-79432880D01*
X123882880Y-79627465D01*
X123729995Y-79856273D01*
X123624686Y-80110510D01*
X123571000Y-80380408D01*
X123571000Y-80655592D01*
X123624686Y-80925490D01*
X123729995Y-81179727D01*
X123882880Y-81408535D01*
X124077465Y-81603120D01*
X124306273Y-81756005D01*
X124560510Y-81861314D01*
X124830408Y-81915000D01*
X125105592Y-81915000D01*
X125375490Y-81861314D01*
X125629727Y-81756005D01*
X125858535Y-81603120D01*
X126053120Y-81408535D01*
X126206005Y-81179727D01*
X126311314Y-80925490D01*
X126365000Y-80655592D01*
X126365000Y-80380408D01*
X126311314Y-80110510D01*
X126206005Y-79856273D01*
X126053120Y-79627465D01*
X125858535Y-79432880D01*
X125629727Y-79279995D01*
X125552485Y-79248000D01*
X125629727Y-79216005D01*
X125858535Y-79063120D01*
X126053120Y-78868535D01*
X126206005Y-78639727D01*
X126311314Y-78385490D01*
X126365000Y-78115592D01*
X126365000Y-77840408D01*
X128651000Y-77840408D01*
X128651000Y-78115592D01*
X128704686Y-78385490D01*
X128809995Y-78639727D01*
X128962880Y-78868535D01*
X129157465Y-79063120D01*
X129386273Y-79216005D01*
X129463515Y-79248000D01*
X129386273Y-79279995D01*
X129157465Y-79432880D01*
X128962880Y-79627465D01*
X128809995Y-79856273D01*
X128704686Y-80110510D01*
X128651000Y-80380408D01*
X128651000Y-80655592D01*
X128704686Y-80925490D01*
X128809995Y-81179727D01*
X128962880Y-81408535D01*
X129157465Y-81603120D01*
X129386273Y-81756005D01*
X129640510Y-81861314D01*
X129910408Y-81915000D01*
X130185592Y-81915000D01*
X130455490Y-81861314D01*
X130709727Y-81756005D01*
X130938535Y-81603120D01*
X131133120Y-81408535D01*
X131286005Y-81179727D01*
X131391314Y-80925490D01*
X131445000Y-80655592D01*
X131445000Y-80380408D01*
X131391314Y-80110510D01*
X131286005Y-79856273D01*
X131133120Y-79627465D01*
X130938535Y-79432880D01*
X130709727Y-79279995D01*
X130632485Y-79248000D01*
X130709727Y-79216005D01*
X130938535Y-79063120D01*
X131133120Y-78868535D01*
X131286005Y-78639727D01*
X131391314Y-78385490D01*
X131445000Y-78115592D01*
X131445000Y-77840408D01*
X131444256Y-77836665D01*
X136233000Y-77836665D01*
X136233000Y-78119335D01*
X136288147Y-78396574D01*
X136396320Y-78657727D01*
X136553363Y-78892759D01*
X136753241Y-79092637D01*
X136988273Y-79249680D01*
X137249426Y-79357853D01*
X137526665Y-79413000D01*
X137809335Y-79413000D01*
X138086574Y-79357853D01*
X138347727Y-79249680D01*
X138582759Y-79092637D01*
X138782637Y-78892759D01*
X138939680Y-78657727D01*
X139047853Y-78396574D01*
X139103000Y-78119335D01*
X139103000Y-77836665D01*
X140043000Y-77836665D01*
X140043000Y-78119335D01*
X140098147Y-78396574D01*
X140206320Y-78657727D01*
X140363363Y-78892759D01*
X140563241Y-79092637D01*
X140798273Y-79249680D01*
X141059426Y-79357853D01*
X141336665Y-79413000D01*
X141619335Y-79413000D01*
X141896574Y-79357853D01*
X142157727Y-79249680D01*
X142392759Y-79092637D01*
X142592637Y-78892759D01*
X142749680Y-78657727D01*
X142857853Y-78396574D01*
X142913000Y-78119335D01*
X142913000Y-77836665D01*
X150203000Y-77836665D01*
X150203000Y-78119335D01*
X150258147Y-78396574D01*
X150366320Y-78657727D01*
X150523363Y-78892759D01*
X150723241Y-79092637D01*
X150958273Y-79249680D01*
X151219426Y-79357853D01*
X151496665Y-79413000D01*
X151779335Y-79413000D01*
X152056574Y-79357853D01*
X152317727Y-79249680D01*
X152552759Y-79092637D01*
X152752637Y-78892759D01*
X152909680Y-78657727D01*
X153017853Y-78396574D01*
X153073000Y-78119335D01*
X153073000Y-77836665D01*
X154013000Y-77836665D01*
X154013000Y-78119335D01*
X154068147Y-78396574D01*
X154176320Y-78657727D01*
X154333363Y-78892759D01*
X154533241Y-79092637D01*
X154768273Y-79249680D01*
X155029426Y-79357853D01*
X155306665Y-79413000D01*
X155589335Y-79413000D01*
X155866574Y-79357853D01*
X156127727Y-79249680D01*
X156362759Y-79092637D01*
X156562637Y-78892759D01*
X156719680Y-78657727D01*
X156827853Y-78396574D01*
X156883000Y-78119335D01*
X156883000Y-77836665D01*
X156827853Y-77559426D01*
X156719680Y-77298273D01*
X156562637Y-77063241D01*
X156362759Y-76863363D01*
X156127727Y-76706320D01*
X155866574Y-76598147D01*
X155589335Y-76543000D01*
X155306665Y-76543000D01*
X155029426Y-76598147D01*
X154768273Y-76706320D01*
X154533241Y-76863363D01*
X154333363Y-77063241D01*
X154176320Y-77298273D01*
X154068147Y-77559426D01*
X154013000Y-77836665D01*
X153073000Y-77836665D01*
X153017853Y-77559426D01*
X152909680Y-77298273D01*
X152752637Y-77063241D01*
X152552759Y-76863363D01*
X152317727Y-76706320D01*
X152056574Y-76598147D01*
X151779335Y-76543000D01*
X151496665Y-76543000D01*
X151219426Y-76598147D01*
X150958273Y-76706320D01*
X150723241Y-76863363D01*
X150523363Y-77063241D01*
X150366320Y-77298273D01*
X150258147Y-77559426D01*
X150203000Y-77836665D01*
X142913000Y-77836665D01*
X142857853Y-77559426D01*
X142749680Y-77298273D01*
X142592637Y-77063241D01*
X142392759Y-76863363D01*
X142157727Y-76706320D01*
X141896574Y-76598147D01*
X141619335Y-76543000D01*
X141336665Y-76543000D01*
X141059426Y-76598147D01*
X140798273Y-76706320D01*
X140563241Y-76863363D01*
X140363363Y-77063241D01*
X140206320Y-77298273D01*
X140098147Y-77559426D01*
X140043000Y-77836665D01*
X139103000Y-77836665D01*
X139047853Y-77559426D01*
X138939680Y-77298273D01*
X138782637Y-77063241D01*
X138582759Y-76863363D01*
X138347727Y-76706320D01*
X138086574Y-76598147D01*
X137809335Y-76543000D01*
X137526665Y-76543000D01*
X137249426Y-76598147D01*
X136988273Y-76706320D01*
X136753241Y-76863363D01*
X136553363Y-77063241D01*
X136396320Y-77298273D01*
X136288147Y-77559426D01*
X136233000Y-77836665D01*
X131444256Y-77836665D01*
X131391314Y-77570510D01*
X131286005Y-77316273D01*
X131133120Y-77087465D01*
X130938535Y-76892880D01*
X130709727Y-76739995D01*
X130455490Y-76634686D01*
X130185592Y-76581000D01*
X129910408Y-76581000D01*
X129640510Y-76634686D01*
X129386273Y-76739995D01*
X129157465Y-76892880D01*
X128962880Y-77087465D01*
X128809995Y-77316273D01*
X128704686Y-77570510D01*
X128651000Y-77840408D01*
X126365000Y-77840408D01*
X126311314Y-77570510D01*
X126206005Y-77316273D01*
X126053120Y-77087465D01*
X125858535Y-76892880D01*
X125629727Y-76739995D01*
X125375490Y-76634686D01*
X125105592Y-76581000D01*
X124830408Y-76581000D01*
X124560510Y-76634686D01*
X124306273Y-76739995D01*
X124077465Y-76892880D01*
X123882880Y-77087465D01*
X123729995Y-77316273D01*
X123624686Y-77570510D01*
X123571000Y-77840408D01*
X121702951Y-77840408D01*
X121718651Y-77810288D01*
X122830589Y-76014447D01*
X123349369Y-75300408D01*
X143891000Y-75300408D01*
X143891000Y-75575592D01*
X143944686Y-75845490D01*
X144049995Y-76099727D01*
X144202880Y-76328535D01*
X144397465Y-76523120D01*
X144626273Y-76676005D01*
X144880510Y-76781314D01*
X145150408Y-76835000D01*
X145425592Y-76835000D01*
X145695490Y-76781314D01*
X145949727Y-76676005D01*
X146178535Y-76523120D01*
X146373120Y-76328535D01*
X146526005Y-76099727D01*
X146558000Y-76022485D01*
X146589995Y-76099727D01*
X146742880Y-76328535D01*
X146937465Y-76523120D01*
X147166273Y-76676005D01*
X147420510Y-76781314D01*
X147690408Y-76835000D01*
X147965592Y-76835000D01*
X148235490Y-76781314D01*
X148489727Y-76676005D01*
X148718535Y-76523120D01*
X148913120Y-76328535D01*
X149066005Y-76099727D01*
X149171314Y-75845490D01*
X149225000Y-75575592D01*
X149225000Y-75300408D01*
X156591000Y-75300408D01*
X156591000Y-75575592D01*
X156644686Y-75845490D01*
X156749995Y-76099727D01*
X156902880Y-76328535D01*
X157097465Y-76523120D01*
X157326273Y-76676005D01*
X157580510Y-76781314D01*
X157850408Y-76835000D01*
X158125592Y-76835000D01*
X158395490Y-76781314D01*
X158649727Y-76676005D01*
X158878535Y-76523120D01*
X159073120Y-76328535D01*
X159226005Y-76099727D01*
X159258000Y-76022485D01*
X159289995Y-76099727D01*
X159442880Y-76328535D01*
X159637465Y-76523120D01*
X159866273Y-76676005D01*
X160120510Y-76781314D01*
X160390408Y-76835000D01*
X160665592Y-76835000D01*
X160935490Y-76781314D01*
X161189727Y-76676005D01*
X161418535Y-76523120D01*
X161613120Y-76328535D01*
X161766005Y-76099727D01*
X161871314Y-75845490D01*
X161925000Y-75575592D01*
X161925000Y-75300408D01*
X161871314Y-75030510D01*
X161766005Y-74776273D01*
X161613120Y-74547465D01*
X161418535Y-74352880D01*
X161189727Y-74199995D01*
X160935490Y-74094686D01*
X160665592Y-74041000D01*
X160390408Y-74041000D01*
X160120510Y-74094686D01*
X159866273Y-74199995D01*
X159637465Y-74352880D01*
X159442880Y-74547465D01*
X159289995Y-74776273D01*
X159258000Y-74853515D01*
X159226005Y-74776273D01*
X159073120Y-74547465D01*
X158878535Y-74352880D01*
X158649727Y-74199995D01*
X158395490Y-74094686D01*
X158125592Y-74041000D01*
X157850408Y-74041000D01*
X157580510Y-74094686D01*
X157326273Y-74199995D01*
X157097465Y-74352880D01*
X156902880Y-74547465D01*
X156749995Y-74776273D01*
X156644686Y-75030510D01*
X156591000Y-75300408D01*
X149225000Y-75300408D01*
X149171314Y-75030510D01*
X149066005Y-74776273D01*
X148913120Y-74547465D01*
X148718535Y-74352880D01*
X148489727Y-74199995D01*
X148235490Y-74094686D01*
X147965592Y-74041000D01*
X147690408Y-74041000D01*
X147420510Y-74094686D01*
X147166273Y-74199995D01*
X146937465Y-74352880D01*
X146742880Y-74547465D01*
X146589995Y-74776273D01*
X146558000Y-74853515D01*
X146526005Y-74776273D01*
X146373120Y-74547465D01*
X146178535Y-74352880D01*
X145949727Y-74199995D01*
X145695490Y-74094686D01*
X145425592Y-74041000D01*
X145150408Y-74041000D01*
X144880510Y-74094686D01*
X144626273Y-74199995D01*
X144397465Y-74352880D01*
X144202880Y-74547465D01*
X144049995Y-74776273D01*
X143944686Y-75030510D01*
X143891000Y-75300408D01*
X123349369Y-75300408D01*
X124072118Y-74305630D01*
X125436456Y-72693169D01*
X126916154Y-71185871D01*
X128015345Y-70220408D01*
X143891000Y-70220408D01*
X143891000Y-70495592D01*
X143944686Y-70765490D01*
X144049995Y-71019727D01*
X144202880Y-71248535D01*
X144397465Y-71443120D01*
X144626273Y-71596005D01*
X144880510Y-71701314D01*
X145150408Y-71755000D01*
X145425592Y-71755000D01*
X145695490Y-71701314D01*
X145949727Y-71596005D01*
X146178535Y-71443120D01*
X146373120Y-71248535D01*
X146526005Y-71019727D01*
X146558000Y-70942485D01*
X146589995Y-71019727D01*
X146742880Y-71248535D01*
X146937465Y-71443120D01*
X147166273Y-71596005D01*
X147420510Y-71701314D01*
X147690408Y-71755000D01*
X147965592Y-71755000D01*
X148235490Y-71701314D01*
X148489727Y-71596005D01*
X148718535Y-71443120D01*
X148913120Y-71248535D01*
X149066005Y-71019727D01*
X149171314Y-70765490D01*
X149225000Y-70495592D01*
X149225000Y-70220408D01*
X156591000Y-70220408D01*
X156591000Y-70495592D01*
X156644686Y-70765490D01*
X156749995Y-71019727D01*
X156902880Y-71248535D01*
X157097465Y-71443120D01*
X157326273Y-71596005D01*
X157580510Y-71701314D01*
X157850408Y-71755000D01*
X158125592Y-71755000D01*
X158395490Y-71701314D01*
X158649727Y-71596005D01*
X158878535Y-71443120D01*
X159073120Y-71248535D01*
X159226005Y-71019727D01*
X159258000Y-70942485D01*
X159289995Y-71019727D01*
X159442880Y-71248535D01*
X159637465Y-71443120D01*
X159866273Y-71596005D01*
X160120510Y-71701314D01*
X160390408Y-71755000D01*
X160665592Y-71755000D01*
X160935490Y-71701314D01*
X161189727Y-71596005D01*
X161418535Y-71443120D01*
X161613120Y-71248535D01*
X161766005Y-71019727D01*
X161871314Y-70765490D01*
X161925000Y-70495592D01*
X161925000Y-70220408D01*
X161871314Y-69950510D01*
X161766005Y-69696273D01*
X161613120Y-69467465D01*
X161418535Y-69272880D01*
X161189727Y-69119995D01*
X160935490Y-69014686D01*
X160665592Y-68961000D01*
X160390408Y-68961000D01*
X160120510Y-69014686D01*
X159866273Y-69119995D01*
X159637465Y-69272880D01*
X159442880Y-69467465D01*
X159289995Y-69696273D01*
X159258000Y-69773515D01*
X159226005Y-69696273D01*
X159073120Y-69467465D01*
X158878535Y-69272880D01*
X158649727Y-69119995D01*
X158395490Y-69014686D01*
X158125592Y-68961000D01*
X157850408Y-68961000D01*
X157580510Y-69014686D01*
X157326273Y-69119995D01*
X157097465Y-69272880D01*
X156902880Y-69467465D01*
X156749995Y-69696273D01*
X156644686Y-69950510D01*
X156591000Y-70220408D01*
X149225000Y-70220408D01*
X149171314Y-69950510D01*
X149066005Y-69696273D01*
X148913120Y-69467465D01*
X148718535Y-69272880D01*
X148489727Y-69119995D01*
X148235490Y-69014686D01*
X147965592Y-68961000D01*
X147690408Y-68961000D01*
X147420510Y-69014686D01*
X147166273Y-69119995D01*
X146937465Y-69272880D01*
X146742880Y-69467465D01*
X146589995Y-69696273D01*
X146558000Y-69773515D01*
X146526005Y-69696273D01*
X146373120Y-69467465D01*
X146178535Y-69272880D01*
X145949727Y-69119995D01*
X145695490Y-69014686D01*
X145425592Y-68961000D01*
X145150408Y-68961000D01*
X144880510Y-69014686D01*
X144626273Y-69119995D01*
X144397465Y-69272880D01*
X144202880Y-69467465D01*
X144049995Y-69696273D01*
X143944686Y-69950510D01*
X143891000Y-70220408D01*
X128015345Y-70220408D01*
X128503128Y-69791969D01*
X130188711Y-68519075D01*
X131494697Y-67676665D01*
X136233000Y-67676665D01*
X136233000Y-67959335D01*
X136288147Y-68236574D01*
X136396320Y-68497727D01*
X136553363Y-68732759D01*
X136753241Y-68932637D01*
X136988273Y-69089680D01*
X137249426Y-69197853D01*
X137526665Y-69253000D01*
X137809335Y-69253000D01*
X138086574Y-69197853D01*
X138347727Y-69089680D01*
X138582759Y-68932637D01*
X138782637Y-68732759D01*
X138939680Y-68497727D01*
X139047853Y-68236574D01*
X139103000Y-67959335D01*
X139103000Y-67676665D01*
X140043000Y-67676665D01*
X140043000Y-67959335D01*
X140098147Y-68236574D01*
X140206320Y-68497727D01*
X140363363Y-68732759D01*
X140563241Y-68932637D01*
X140798273Y-69089680D01*
X141059426Y-69197853D01*
X141336665Y-69253000D01*
X141619335Y-69253000D01*
X141896574Y-69197853D01*
X142157727Y-69089680D01*
X142392759Y-68932637D01*
X142592637Y-68732759D01*
X142749680Y-68497727D01*
X142857853Y-68236574D01*
X142913000Y-67959335D01*
X142913000Y-67676665D01*
X150203000Y-67676665D01*
X150203000Y-67959335D01*
X150258147Y-68236574D01*
X150366320Y-68497727D01*
X150523363Y-68732759D01*
X150723241Y-68932637D01*
X150958273Y-69089680D01*
X151219426Y-69197853D01*
X151496665Y-69253000D01*
X151779335Y-69253000D01*
X152056574Y-69197853D01*
X152317727Y-69089680D01*
X152552759Y-68932637D01*
X152752637Y-68732759D01*
X152909680Y-68497727D01*
X153017853Y-68236574D01*
X153073000Y-67959335D01*
X153073000Y-67676665D01*
X154013000Y-67676665D01*
X154013000Y-67959335D01*
X154068147Y-68236574D01*
X154176320Y-68497727D01*
X154333363Y-68732759D01*
X154533241Y-68932637D01*
X154768273Y-69089680D01*
X155029426Y-69197853D01*
X155306665Y-69253000D01*
X155589335Y-69253000D01*
X155866574Y-69197853D01*
X156127727Y-69089680D01*
X156362759Y-68932637D01*
X156562637Y-68732759D01*
X156719680Y-68497727D01*
X156827853Y-68236574D01*
X156883000Y-67959335D01*
X156883000Y-67676665D01*
X156827853Y-67399426D01*
X156719680Y-67138273D01*
X156562637Y-66903241D01*
X156362759Y-66703363D01*
X156127727Y-66546320D01*
X155866574Y-66438147D01*
X155589335Y-66383000D01*
X155306665Y-66383000D01*
X155029426Y-66438147D01*
X154768273Y-66546320D01*
X154533241Y-66703363D01*
X154333363Y-66903241D01*
X154176320Y-67138273D01*
X154068147Y-67399426D01*
X154013000Y-67676665D01*
X153073000Y-67676665D01*
X153017853Y-67399426D01*
X152909680Y-67138273D01*
X152752637Y-66903241D01*
X152552759Y-66703363D01*
X152317727Y-66546320D01*
X152056574Y-66438147D01*
X151779335Y-66383000D01*
X151496665Y-66383000D01*
X151219426Y-66438147D01*
X150958273Y-66546320D01*
X150723241Y-66703363D01*
X150523363Y-66903241D01*
X150366320Y-67138273D01*
X150258147Y-67399426D01*
X150203000Y-67676665D01*
X142913000Y-67676665D01*
X142857853Y-67399426D01*
X142749680Y-67138273D01*
X142592637Y-66903241D01*
X142392759Y-66703363D01*
X142157727Y-66546320D01*
X141896574Y-66438147D01*
X141619335Y-66383000D01*
X141336665Y-66383000D01*
X141059426Y-66438147D01*
X140798273Y-66546320D01*
X140563241Y-66703363D01*
X140363363Y-66903241D01*
X140206320Y-67138273D01*
X140098147Y-67399426D01*
X140043000Y-67676665D01*
X139103000Y-67676665D01*
X139047853Y-67399426D01*
X138939680Y-67138273D01*
X138782637Y-66903241D01*
X138582759Y-66703363D01*
X138347727Y-66546320D01*
X138086574Y-66438147D01*
X137809335Y-66383000D01*
X137526665Y-66383000D01*
X137249426Y-66438147D01*
X136988273Y-66546320D01*
X136753241Y-66703363D01*
X136553363Y-66903241D01*
X136396320Y-67138273D01*
X136288147Y-67399426D01*
X136233000Y-67676665D01*
X131494697Y-67676665D01*
X131963698Y-67374142D01*
X133818394Y-66363423D01*
X135742670Y-65492438D01*
X137726015Y-64765944D01*
X139757597Y-64187909D01*
X141826320Y-63761490D01*
X143920887Y-63489016D01*
X146029856Y-63371975D01*
X148141710Y-63411007D01*
G36*
X152194444Y-111240252D02*
G01*
X152429014Y-111359127D01*
X152682267Y-111429957D01*
X152934445Y-111449251D01*
X152858129Y-111633494D01*
X152801061Y-111920392D01*
X152801061Y-112162909D01*
X152638573Y-112095605D01*
X152351675Y-112038537D01*
X152088570Y-112038537D01*
X152155645Y-111798709D01*
X152175706Y-111536504D01*
X152144229Y-111275423D01*
X152111377Y-111175059D01*
X152194444Y-111240252D01*
G37*
X152194444Y-111240252D02*
X152429014Y-111359127D01*
X152682267Y-111429957D01*
X152934445Y-111449251D01*
X152858129Y-111633494D01*
X152801061Y-111920392D01*
X152801061Y-112162909D01*
X152638573Y-112095605D01*
X152351675Y-112038537D01*
X152088570Y-112038537D01*
X152155645Y-111798709D01*
X152175706Y-111536504D01*
X152144229Y-111275423D01*
X152111377Y-111175059D01*
X152194444Y-111240252D01*
G36*
X154275090Y-109783368D02*
G01*
X154509660Y-109902243D01*
X154762913Y-109973073D01*
X155015092Y-109992367D01*
X154938776Y-110176610D01*
X154881708Y-110463508D01*
X154881708Y-110706025D01*
X154719219Y-110638720D01*
X154432321Y-110581652D01*
X154169216Y-110581652D01*
X154236291Y-110341825D01*
X154256352Y-110079620D01*
X154224875Y-109818539D01*
X154192023Y-109718175D01*
X154275090Y-109783368D01*
G37*
X154275090Y-109783368D02*
X154509660Y-109902243D01*
X154762913Y-109973073D01*
X155015092Y-109992367D01*
X154938776Y-110176610D01*
X154881708Y-110463508D01*
X154881708Y-110706025D01*
X154719219Y-110638720D01*
X154432321Y-110581652D01*
X154169216Y-110581652D01*
X154236291Y-110341825D01*
X154256352Y-110079620D01*
X154224875Y-109818539D01*
X154192023Y-109718175D01*
X154275090Y-109783368D01*
G36*
X156355737Y-108326484D02*
G01*
X156590307Y-108445359D01*
X156843560Y-108516189D01*
X157095738Y-108535483D01*
X157019422Y-108719726D01*
X156962354Y-109006624D01*
X156962354Y-109249140D01*
X156799866Y-109181836D01*
X156512968Y-109124768D01*
X156249862Y-109124768D01*
X156316937Y-108884941D01*
X156336998Y-108622736D01*
X156305521Y-108361655D01*
X156272668Y-108261290D01*
X156355737Y-108326484D01*
G37*
X156355737Y-108326484D02*
X156590307Y-108445359D01*
X156843560Y-108516189D01*
X157095738Y-108535483D01*
X157019422Y-108719726D01*
X156962354Y-109006624D01*
X156962354Y-109249140D01*
X156799866Y-109181836D01*
X156512968Y-109124768D01*
X156249862Y-109124768D01*
X156316937Y-108884941D01*
X156336998Y-108622736D01*
X156305521Y-108361655D01*
X156272668Y-108261290D01*
X156355737Y-108326484D01*
G36*
X158436383Y-106869600D02*
G01*
X158670953Y-106988475D01*
X158882085Y-107047525D01*
X158806036Y-107144425D01*
X158749493Y-107256000D01*
X158715803Y-107376461D01*
X158706261Y-107501181D01*
X158721234Y-107625365D01*
X158745009Y-107697999D01*
X158593614Y-107667884D01*
X158330509Y-107667884D01*
X158397584Y-107428057D01*
X158417645Y-107165852D01*
X158386168Y-106904771D01*
X158353316Y-106804407D01*
X158436383Y-106869600D01*
G37*
X158436383Y-106869600D02*
X158670953Y-106988475D01*
X158882085Y-107047525D01*
X158806036Y-107144425D01*
X158749493Y-107256000D01*
X158715803Y-107376461D01*
X158706261Y-107501181D01*
X158721234Y-107625365D01*
X158745009Y-107697999D01*
X158593614Y-107667884D01*
X158330509Y-107667884D01*
X158397584Y-107428057D01*
X158417645Y-107165852D01*
X158386168Y-106904771D01*
X158353316Y-106804407D01*
X158436383Y-106869600D01*
M02*
