M48
; DRILL file {KiCad (5.1.5)-3} date 2021/07/05 18:08:45
; FORMAT={-:-/ absolute / inch / decimal}
; #@! TF.CreationDate,2021-07-05T18:08:45+08:00
; #@! TF.GenerationSoftware,Kicad,Pcbnew,(5.1.5)-3
; #@! TF.FileFunction,Plated,1,2,PTH
FMAT,2
INCH
T1C0.0300
T2C0.0315
T3C0.0394
%
G90
G05
T1
X4.92Y-3.57
X4.92Y-3.67
X5.12Y-3.57
X5.12Y-3.67
X5.72Y-4.27
X5.72Y-4.47
X5.82Y-4.27
X5.82Y-4.47
X6.42Y-3.57
X6.42Y-3.67
X6.62Y-3.57
X6.62Y-3.67
X6.42Y-4.07
X6.42Y-4.17
X6.62Y-4.07
X6.62Y-4.17
X5.72Y-2.77
X5.72Y-2.97
X5.82Y-2.77
X5.82Y-2.97
X4.92Y-3.07
X4.92Y-3.17
X5.12Y-3.07
X5.12Y-3.17
X5.22Y-4.27
X5.22Y-4.47
X5.32Y-4.27
X5.32Y-4.47
X6.22Y-2.77
X6.22Y-2.97
X6.32Y-2.77
X6.32Y-2.97
T2
X6.32Y-3.27
X6.72Y-3.27
X5.42Y-2.67
X5.42Y-3.07
X4.82Y-3.97
X5.22Y-3.97
X6.32Y-3.82
X6.72Y-3.82
X4.82Y-3.82
X5.22Y-3.82
X5.42Y-4.17
X5.42Y-4.57
X6.32Y-3.97
X6.72Y-3.97
X5.57Y-2.67
X5.57Y-3.07
X6.18Y-4.62
X6.5116Y-4.3963
X6.12Y-2.67
X6.12Y-3.07
X4.82Y-3.27
X5.22Y-3.27
X6.32Y-3.42
X6.72Y-3.42
X5.57Y-4.17
X5.57Y-4.57
X5.62Y-4.68
X6.02Y-4.68
X5.97Y-2.67
X5.97Y-3.07
X4.82Y-3.42
X5.22Y-3.42
T3
X5.935Y-4.3875
X5.9923Y-4.4694
X6.0169Y-4.3302
X6.0743Y-4.4121
X6.0988Y-4.2728
X6.1562Y-4.3547
X6.1807Y-4.2154
X6.2381Y-4.2974
X6.2626Y-4.1581
X6.32Y-4.24
T0
M30
