<?xml version="1.0" encoding="UTF-8" standalone="no"?>
<svg
   xmlns:dc="http://purl.org/dc/elements/1.1/"
   xmlns:cc="http://creativecommons.org/ns#"
   xmlns:rdf="http://www.w3.org/1999/02/22-rdf-syntax-ns#"
   xmlns:svg="http://www.w3.org/2000/svg"
   xmlns="http://www.w3.org/2000/svg"
   xmlns:sodipodi="http://sodipodi.sourceforge.net/DTD/sodipodi-0.dtd"
   xmlns:inkscape="http://www.inkscape.org/namespaces/inkscape"
   inkscape:export-ydpi="240"
   inkscape:export-xdpi="240"
   inkscape:export-filename="C:\Users\simqahp\STM32CubeIDE\workspace_1.6.1\mini_robot\机械臂1.png"
   sodipodi:docname="机械臂.svg"
   inkscape:version="1.0 (4035a4fb49, 2020-05-01)"
   id="svg8"
   version="1.1"
   viewBox="0 0 210 297"
   height="297mm"
   width="210mm">
  <defs
     id="defs2">
    <filter
       inkscape:label="In and Out"
       inkscape:menu="Shadows and Glows"
       inkscape:menu-tooltip="Inner colorized shadow, outer black shadow"
       style="color-interpolation-filters:sRGB;"
       id="filter1009">
      <feGaussianBlur
         result="result0"
         in="SourceAlpha"
         stdDeviation="4"
         id="feGaussianBlur1003" />
      <feOffset
         dx="5"
         dy="5"
         result="result4"
         id="feOffset1005" />
      <feComposite
         in="SourceGraphic"
         in2="result4"
         operator="xor"
         result="result3"
         id="feComposite1007" />
    </filter>
    <filter
       inkscape:label="In and Out"
       inkscape:menu="Shadows and Glows"
       inkscape:menu-tooltip="Inner colorized shadow, outer black shadow"
       style="color-interpolation-filters:sRGB;"
       id="filter1208">
      <feGaussianBlur
         result="result0"
         in="SourceAlpha"
         stdDeviation="4"
         id="feGaussianBlur1202" />
      <feOffset
         dx="5"
         dy="5"
         result="result4"
         id="feOffset1204" />
      <feComposite
         in="SourceGraphic"
         in2="result4"
         operator="xor"
         result="result3"
         id="feComposite1206" />
    </filter>
  </defs>
  <sodipodi:namedview
     inkscape:window-maximized="0"
     inkscape:window-y="0"
     inkscape:window-x="0"
     inkscape:window-height="967"
     inkscape:window-width="1264"
     showgrid="false"
     inkscape:document-rotation="0"
     inkscape:current-layer="layer2"
     inkscape:document-units="mm"
     inkscape:cy="870.99046"
     inkscape:cx="346.46968"
     inkscape:zoom="0.7"
     inkscape:pageshadow="2"
     inkscape:pageopacity="0.0"
     borderopacity="1.0"
     bordercolor="#666666"
     pagecolor="#ffffff"
     id="base" />
  <metadata
     id="metadata5">
    <rdf:RDF>
      <cc:Work
         rdf:about="">
        <dc:format>image/svg+xml</dc:format>
        <dc:type
           rdf:resource="http://purl.org/dc/dcmitype/StillImage" />
        <dc:title />
      </cc:Work>
    </rdf:RDF>
  </metadata>
  <g
     id="layer1"
     inkscape:groupmode="layer"
     inkscape:label="图层 1"
     style="display:inline;opacity:0.997">
    <path
       id="path902-3"
       style="opacity:0.997;fill:#87decd;stroke-width:5.32346;paint-order:fill markers stroke;filter:url(#filter1009)"
       d="m 565.81836,507.44727 -47.24414,44.21875 c 7.93915,0.10139 13.16664,0.18235 18.89844,0.26562 v 28.78516 h 56.69336 v -28.69336 c 5.47109,-0.0915 11.46391,-0.20252 18.89648,-0.35742 z m 0,77.06054 -39.84375,44.21875 c 7.21237,0.10922 12.08186,0.1955 17.16797,0.28321 v 36.32617 h 45.35351 v -36.23047 c 4.9109,-0.094 10.31411,-0.20955 17.16797,-0.37891 z m -53.89258,9.39258 a 92.934036,92.934036 0 0 0 -65.1543,88.68359 92.934036,92.934036 0 0 0 26.78321,65.26954 c -3.34492,3.4539 -6.76141,6.98883 -11.63086,12.08007 h 50.0039 v -50.00195 c -5.44696,5.30031 -9.3565,9.08401 -12.98242,12.59961 a 57.073621,57.073621 0 0 1 -16.31445,-39.94727 57.073621,57.073621 0 0 1 29.29492,-49.85742 z m 111.5586,0 v 38.82617 a 57.073621,57.073621 0 0 1 29.29492,49.85742 57.073621,57.073621 0 0 1 -16.25977,39.89454 c -3.62389,-3.51498 -7.54026,-7.29322 -13.0332,-12.54688 v 22.50781 a 57.073621,57.073621 0 0 1 -0.002,0.002 l 0.002,0.002 v 27.49023 h 50.00195 c -4.91256,-5.04848 -8.32985,-8.57783 -11.67773,-12.03125 a 92.934036,92.934036 0 0 0 26.82812,-65.31836 92.934036,92.934036 0 0 0 -65.15429,-88.68359 z m -80.3418,100.77344 v 37.38672 c -4.9109,0.094 -10.31411,0.21149 -17.16797,0.38086 l 39.84375,44.21875 39.8457,-44.21875 c -7.21238,-0.10922 -12.08185,-0.19745 -17.16797,-0.28516 v -37.48242 z m -5.66992,85.57812 v 29.41016 c -5.4711,0.0915 -11.46587,0.20253 -18.89844,0.35742 l 47.24414,44.21875 47.24414,-44.21875 c -7.93889,-0.10139 -13.16483,-0.18235 -18.89648,-0.26562 v -29.50196 z"
       transform="scale(0.26458333)" />
  </g>
  <g
     inkscape:groupmode="layer"
     id="layer3"
     inkscape:label="图层 2"
     style="display:none">
    <path
       id="path902"
       style="display:inline;opacity:0.997;fill:#87decd;stroke-width:5.32346;paint-order:fill markers stroke;filter:url(#filter1208)"
       d="m 216.39844,519.30273 -47.24219,44.21875 c 7.93889,0.1014 13.16483,0.18236 18.89648,0.26563 v 28.78516 h 56.69336 v -28.69336 c 5.4711,-0.0915 11.46391,-0.20252 18.89649,-0.35743 z m -74.96289,58.20899 a 92.934036,92.934036 0 0 0 -65.1543,88.68359 92.934036,92.934036 0 0 0 26.7832,65.26953 c -3.344916,3.4539 -6.761405,6.98884 -11.630856,12.08008 h 50.001956 v -50.00195 c -5.44774,5.30106 -9.35618,9.08565 -12.98243,12.60156 a 57.073621,57.073621 0 0 1 -16.3125,-39.94922 57.073621,57.073621 0 0 1 29.29493,-49.85742 z m 151.70117,6.06055 v 38.82617 a 57.073621,57.073621 0 0 1 29.29492,49.85742 57.073621,57.073621 0 0 1 -16.25976,39.89648 c -3.62394,-3.51501 -7.5421,-7.29506 -13.03516,-12.54882 v 50.0039 h 50.0039 c -4.9123,-5.04823 -8.33191,-8.57795 -11.67968,-12.03125 a 92.934036,92.934036 0 0 0 26.83008,-65.32031 92.934036,92.934036 0 0 0 -65.1543,-88.68359 z m -57.375,23.6289 v 37.79492 c 4.66963,-4.54391 8.16613,-7.92672 11.1289,-10.80078 a 39.72932,39.72932 0 0 1 13.48243,29.82617 39.72932,39.72932 0 0 1 -20.39258,34.70508 v 27.02735 a 64.691992,64.691992 0 0 0 45.35547,-61.73243 64.691992,64.691992 0 0 0 -20.76367,-47.48828 c 2.56482,-2.64728 5.22272,-5.39904 8.98437,-9.33203 z m -74.32617,1.13672 c 4.00086,4.11156 6.8567,7.06049 9.51172,9.79883 a 64.691992,64.691992 0 0 0 -20.71289,47.4414 64.691992,64.691992 0 0 0 45.35351,61.73243 V 700.2832 a 39.72932,39.72932 0 0 1 -20.39258,-34.70508 39.72932,39.72932 0 0 1 13.36328,-29.71874 c 2.87698,2.79571 6.17441,5.9719 10.67188,10.27343 v -37.79492 z m 29.64843,131.36328 v 29.41016 c -5.47144,0.0915 -11.46517,0.2025 -18.89843,0.35742 l 47.24414,44.21875 47.24414,-44.21875 c -7.93971,-0.1014 -13.16637,-0.18235 -18.89844,-0.26563 v -29.50195 z"
       transform="scale(0.26458333)" />
  </g>
  <g
     inkscape:groupmode="layer"
     id="layer2"
     inkscape:label="文字"
     style="display:inline">
    <text
       xml:space="preserve"
       style="font-size:9.31545px;line-height:1.25;font-family:Impact;-inkscape-font-specification:Impact;display:inline;opacity:0.997;fill:#008080;stroke-width:0.232887"
       x="118.80807"
       y="183.66562"
       id="text1008-9"><tspan
         sodipodi:role="line"
         id="tspan1006-3"
         x="118.80807"
         y="183.66562"
         style="fill:#008080;stroke-width:0.232887">1+</tspan></text>
    <text
       id="text1008-7-6"
       y="183.66562"
       x="174.37447"
       style="font-size:9.31545px;line-height:1.25;font-family:Impact;-inkscape-font-specification:Impact;display:inline;opacity:0.997;fill:#008080;stroke-width:0.232887"
       xml:space="preserve"><tspan
         style="fill:#008080;stroke-width:0.232887"
         y="183.66562"
         x="174.37447"
         id="tspan1006-6-5"
         sodipodi:role="line">1-</tspan></text>
    <text
       id="text1008-3-0"
       y="170.32112"
       x="145.82462"
       style="font-size:9.31545px;line-height:1.25;font-family:Impact;-inkscape-font-specification:Impact;display:inline;opacity:0.997;fill:#008080;stroke-width:0.232887"
       xml:space="preserve"><tspan
         style="fill:#008080;stroke-width:0.232887"
         y="170.32112"
         x="145.82462"
         id="tspan1006-2-4"
         sodipodi:role="line">3+</tspan></text>
    <text
       id="text1008-8-6"
       y="149.41902"
       x="145.67453"
       style="font-size:9.31545px;line-height:1.25;font-family:Impact;-inkscape-font-specification:Impact;display:inline;opacity:0.997;fill:#008080;stroke-width:0.232887"
       xml:space="preserve"><tspan
         style="fill:#008080;stroke-width:0.232887"
         y="149.41902"
         x="145.67453"
         id="tspan1006-4-1"
         sodipodi:role="line">2+</tspan></text>
    <text
       xml:space="preserve"
       style="font-size:9.31545px;line-height:1.25;font-family:Impact;-inkscape-font-specification:Impact;display:inline;opacity:0.997;fill:#008080;stroke-width:0.232887"
       x="146.87306"
       y="196.74162"
       id="text1008-7-8-1"><tspan
         sodipodi:role="line"
         id="tspan1006-6-3-8"
         x="146.87306"
         y="196.74162"
         style="fill:#008080;stroke-width:0.232887">3-</tspan></text>
    <text
       xml:space="preserve"
       style="font-size:9.31545px;line-height:1.25;font-family:Impact;-inkscape-font-specification:Impact;display:inline;opacity:0.997;fill:#008080;stroke-width:0.232887"
       x="146.72295"
       y="217.26579"
       id="text1008-7-4-4"><tspan
         sodipodi:role="line"
         id="tspan1006-6-0-8"
         x="146.72295"
         y="217.26579"
         style="fill:#008080;stroke-width:0.232887">2-</tspan></text>
  </g>
  <g
     style="display:none"
     inkscape:label="文字 1"
     id="layer4"
     inkscape:groupmode="layer">
    <text
       id="text1008"
       y="179.32956"
       x="20.782356"
       style="font-size:9.31546px;line-height:1.25;font-family:Impact;-inkscape-font-specification:Impact;display:inline;opacity:0.997;fill:#008080;fill-opacity:1;stroke-width:0.232887"
       xml:space="preserve"><tspan
         style="fill:#008080;fill-opacity:1;stroke-width:0.232887"
         y="179.32956"
         x="20.782356"
         id="tspan1006"
         sodipodi:role="line">5+</tspan></text>
    <text
       xml:space="preserve"
       style="font-size:9.31545px;line-height:1.25;font-family:Impact;-inkscape-font-specification:Impact;display:inline;opacity:0.997;fill:#008080;fill-opacity:1;stroke-width:0.232887"
       x="86.969704"
       y="180.93318"
       id="text1008-7"><tspan
         sodipodi:role="line"
         id="tspan1006-6"
         x="86.969704"
         y="180.93318"
         style="fill:#008080;fill-opacity:1;stroke-width:0.232887">5-</tspan></text>
    <text
       xml:space="preserve"
       style="font-size:9.31545px;line-height:1.25;font-family:Impact;-inkscape-font-specification:Impact;display:inline;opacity:0.997;fill:#008080;fill-opacity:1;stroke-width:0.232887"
       x="53.223862"
       y="152.55576"
       id="text1008-8"><tspan
         sodipodi:role="line"
         id="tspan1006-4"
         x="53.223862"
         y="152.55576"
         style="fill:#008080;fill-opacity:1;stroke-width:0.232887">4+</tspan></text>
    <text
       id="text1008-7-4"
       y="206.53679"
       x="55.074112"
       style="font-size:9.31545px;line-height:1.25;font-family:Impact;-inkscape-font-specification:Impact;display:inline;opacity:0.997;fill:#008080;fill-opacity:1;stroke-width:0.232887"
       xml:space="preserve"><tspan
         style="fill:#008080;fill-opacity:1;stroke-width:0.232887"
         y="206.53679"
         x="55.074112"
         id="tspan1006-6-0"
         sodipodi:role="line">4-</tspan></text>
    <text
       id="text1008-3-1"
       y="175.9519"
       x="70.107872"
       style="font-size:7.30265px;line-height:1.25;font-family:Impact;-inkscape-font-specification:Impact;display:inline;opacity:0.997;fill:#008080;fill-opacity:1;stroke-width:0.182567"
       xml:space="preserve"
       transform="scale(0.98058086,1.0198037)"><tspan
         style="fill:#008080;fill-opacity:1;stroke-width:0.182567"
         y="175.9519"
         x="70.107872"
         id="tspan1006-2-47"
         sodipodi:role="line">6+</tspan></text>
    <text
       transform="scale(0.98058086,1.0198037)"
       xml:space="preserve"
       style="font-size:7.30266px;line-height:1.25;font-family:Impact;-inkscape-font-specification:Impact;display:inline;opacity:0.997;fill:#008080;fill-opacity:1;stroke-width:0.182567"
       x="41.341743"
       y="175.38998"
       id="text1008-3-1-9"><tspan
         sodipodi:role="line"
         id="tspan1006-2-47-4"
         x="41.341743"
         y="175.38998"
         style="fill:#008080;fill-opacity:1;stroke-width:0.182567">6-</tspan></text>
  </g>
</svg>
